<svg width="72" height="48" viewBox="0 0 72 48" fill="none" xmlns="http://www.w3.org/2000/svg">
<path d="M36 6C42.6274 6 48 11.3726 48 18C48 24.6274 42.6274 30 36 30C29.3726 30 24 24.6274 24 18C24 11.3726 29.3726 6 36 6ZM36 24.5C33.9141 24.5 31.92 25.082 30.2032 26.149C31.8382 27.3146 33.839 28 36 28C38.1605 28 40.161 27.3148 41.796 26.15C40.0795 25.0818 38.0857 24.5 36 24.5ZM36 8C30.4772 8 26 12.4772 26 18C26 20.6157 27.0043 22.9968 28.6482 24.7788C30.7856 23.3082 33.331 22.5 36 22.5C38.6693 22.5 41.2149 23.3084 43.3527 24.7774C44.9961 22.9959 46 20.6152 46 18C46 12.4772 41.5228 8 36 8ZM36 11.5C38.6242 11.5 40.75 13.6258 40.75 16.25C40.75 18.8742 38.6242 21 36 21C33.3758 21 31.25 18.8742 31.25 16.25C31.25 13.6258 33.3758 11.5 36 11.5ZM36 13.5C34.4804 13.5 33.25 14.7304 33.25 16.25C33.25 17.7696 34.4804 19 36 19C37.5196 19 38.75 17.7696 38.75 16.25C38.75 14.7304 37.5196 13.5 36 13.5Z" fill="#4986CC"/>
<path d="M20.3805 43H19.15V36.8867H16.0201V43H14.7896V35.8906H20.3805V43ZM26.5863 40.4121C26.5863 41.2292 26.4008 41.8818 26.0297 42.3701C25.6586 42.8551 25.1605 43.0977 24.5355 43.0977C23.9561 43.0977 23.4923 42.9072 23.1439 42.5264V45.0312H21.9574V37.7168H23.0512L23.1 38.2539C23.4483 37.8307 23.9219 37.6191 24.5209 37.6191C25.1654 37.6191 25.67 37.86 26.0346 38.3418C26.4024 38.8203 26.5863 39.486 26.5863 40.3389V40.4121ZM25.4047 40.3096C25.4047 39.7822 25.2989 39.3639 25.0873 39.0547C24.879 38.7454 24.5795 38.5908 24.1889 38.5908C23.7038 38.5908 23.3555 38.791 23.1439 39.1914V41.5352C23.3588 41.9453 23.7104 42.1504 24.1986 42.1504C24.5762 42.1504 24.8708 41.999 25.0824 41.6963C25.2973 41.3903 25.4047 40.9281 25.4047 40.3096ZM27.5725 40.3096C27.5725 39.792 27.675 39.3265 27.8801 38.9131C28.0852 38.4964 28.3732 38.1774 28.7443 37.9561C29.1154 37.7314 29.5419 37.6191 30.0236 37.6191C30.7365 37.6191 31.3143 37.8486 31.757 38.3076C32.203 38.7666 32.4439 39.3753 32.4797 40.1338L32.4846 40.4121C32.4846 40.9329 32.3837 41.3984 32.1818 41.8086C31.9833 42.2188 31.6968 42.5361 31.3225 42.7607C30.9514 42.9854 30.5217 43.0977 30.0334 43.0977C29.288 43.0977 28.6906 42.8503 28.2414 42.3555C27.7954 41.8574 27.5725 41.195 27.5725 40.3682V40.3096ZM28.759 40.4121C28.759 40.9557 28.8713 41.3822 29.0959 41.6914C29.3205 41.9974 29.633 42.1504 30.0334 42.1504C30.4338 42.1504 30.7447 41.9941 30.966 41.6816C31.1906 41.3691 31.3029 40.9118 31.3029 40.3096C31.3029 39.7757 31.1874 39.3525 30.9562 39.04C30.7284 38.7275 30.4175 38.5713 30.0236 38.5713C29.6363 38.5713 29.3286 38.7259 29.1008 39.0352C28.8729 39.3411 28.759 39.8001 28.759 40.4121ZM33.4902 40.4316C33.4902 39.569 33.6595 38.8854 33.998 38.3809C34.3398 37.873 34.8151 37.6191 35.4238 37.6191C35.6712 37.6191 35.8958 37.6647 36.0977 37.7559V35.5H37.2793V37.7754C37.4876 37.6712 37.7318 37.6191 38.0117 37.6191C38.6172 37.6191 39.0908 37.8714 39.4326 38.376C39.7777 38.8773 39.9502 39.5967 39.9502 40.5342C39.9502 41.3252 39.7777 41.9502 39.4326 42.4092C39.0876 42.8682 38.6172 43.0977 38.0215 43.0977C37.7513 43.0977 37.5039 43.0488 37.2793 42.9512V45.0312H36.0977V42.9707C35.8991 43.0553 35.6712 43.0977 35.4141 43.0977C34.8444 43.0977 34.3887 42.8877 34.0469 42.4678C33.7083 42.0446 33.5244 41.4635 33.4951 40.7246L33.4902 40.4316ZM38.7637 40.4316C38.7637 39.8392 38.6693 39.3818 38.4805 39.0596C38.2917 38.734 38.0247 38.5713 37.6797 38.5713C37.5332 38.5713 37.3997 38.5924 37.2793 38.6348V42.1016C37.3867 42.1341 37.5234 42.1504 37.6895 42.1504C38.4056 42.1504 38.7637 41.5775 38.7637 40.4316ZM34.6719 40.5342C34.6719 41.0615 34.7598 41.4635 34.9355 41.7402C35.1113 42.0137 35.3717 42.1504 35.7168 42.1504C35.8633 42.1504 35.9902 42.1341 36.0977 42.1016V38.6201C35.987 38.5876 35.8633 38.5713 35.7266 38.5713C35.388 38.5713 35.1276 38.7292 34.9453 39.0449C34.763 39.3574 34.6719 39.8538 34.6719 40.5342ZM44.4715 37.7168H45.6531V43H44.4715V39.4746L42.4012 43H41.2195V37.7168H42.4012V41.2422L44.4715 37.7168ZM51.6051 37.7168V43H50.4186V38.6738H48.9244L48.8268 40.5146C48.7649 41.4001 48.594 42.0365 48.3141 42.4238C48.0374 42.8079 47.6126 43 47.0396 43H46.6734L46.6686 42.0137L46.9127 41.9893C47.1731 41.9535 47.3619 41.7956 47.4791 41.5156C47.5995 41.2324 47.676 40.7181 47.7086 39.9727L47.8063 37.7168H51.6051ZM54.3441 39.3965H55.5062C55.9392 39.3965 56.3168 39.4714 56.6391 39.6211C56.9613 39.7708 57.2055 39.9808 57.3715 40.251C57.5408 40.5212 57.6254 40.8353 57.6254 41.1934C57.6254 41.737 57.4333 42.1732 57.0492 42.502C56.6651 42.8307 56.154 42.9967 55.516 43H53.1576V37.7168H54.3441V39.3965ZM54.3441 40.3486V42.0527H55.5014C55.7911 42.0527 56.0189 41.9811 56.185 41.8379C56.3542 41.6914 56.4389 41.4847 56.4389 41.2178C56.4389 40.9508 56.3559 40.7409 56.1898 40.5879C56.0271 40.4316 55.8057 40.3519 55.5258 40.3486H54.3441Z" fill="#4986CC"/>
</svg>
