<svg width="72" height="48" viewBox="0 0 72 48" fill="none" xmlns="http://www.w3.org/2000/svg">
<path d="M39.5903 7C41.7733 7 42.823 7.20271 43.9137 7.78602C44.9028 8.31499 45.685 9.0972 46.214 10.0863C46.7973 11.177 47 12.2267 47 14.4097V21.5903C47 23.7733 46.7973 24.823 46.214 25.9137C45.685 26.9028 44.9028 27.685 43.9137 28.214C42.823 28.7973 41.7733 29 39.5903 29H32.4097C30.2267 29 29.177 28.7973 28.0863 28.214C27.0972 27.685 26.315 26.9028 25.786 25.9137C25.2027 24.823 25 23.7733 25 21.5903V14.4097C25 12.2267 25.2027 11.177 25.786 10.0863C26.315 9.0972 27.0972 8.31499 28.0863 7.78602C29.177 7.20271 30.2267 7 32.4097 7H39.5903ZM26.999 15L27 21.5903C27 23.4714 27.1425 24.2092 27.5496 24.9705C27.8922 25.6111 28.3889 26.1078 29.0295 26.4504C29.7908 26.8575 30.5286 27 32.4097 27H39.5903C41.4714 27 42.2092 26.8575 42.9705 26.4504C43.6111 26.1078 44.1078 25.6111 44.4504 24.9705C44.8575 24.2092 45 23.4714 45 21.5903L44.999 15H26.999ZM39.5903 9H32.4097C30.5286 9 29.7908 9.14248 29.0295 9.54964C28.3889 9.89221 27.8922 10.3889 27.5496 11.0295C27.2641 11.5635 27.1087 12.0859 27.0414 12.9995H44.9586C44.8913 12.0859 44.7359 11.5635 44.4504 11.0295C44.1078 10.3889 43.6111 9.89221 42.9705 9.54964C42.2092 9.14248 41.4714 9 39.5903 9Z" fill="#99A2AD"/>
<path d="M21.7037 43H20.4732V39.8408H17.2945V43H16.0592V35.8906H17.2945V38.8496H20.4732V35.8906H21.7037V43ZM23.0316 40.3096C23.0316 39.792 23.1342 39.3265 23.3393 38.9131C23.5443 38.4964 23.8324 38.1774 24.2035 37.9561C24.5746 37.7314 25.001 37.6191 25.4828 37.6191C26.1957 37.6191 26.7735 37.8486 27.2162 38.3076C27.6622 38.7666 27.9031 39.3753 27.9389 40.1338L27.9437 40.4121C27.9437 40.9329 27.8428 41.3984 27.641 41.8086C27.4424 42.2188 27.156 42.5361 26.7816 42.7607C26.4105 42.9854 25.9809 43.0977 25.4926 43.0977C24.7471 43.0977 24.1498 42.8503 23.7006 42.3555C23.2546 41.8574 23.0316 41.195 23.0316 40.3682V40.3096ZM24.2182 40.4121C24.2182 40.9557 24.3305 41.3822 24.5551 41.6914C24.7797 41.9974 25.0922 42.1504 25.4926 42.1504C25.893 42.1504 26.2038 41.9941 26.4252 41.6816C26.6498 41.3691 26.7621 40.9118 26.7621 40.3096C26.7621 39.7757 26.6465 39.3525 26.4154 39.04C26.1876 38.7275 25.8767 38.5713 25.4828 38.5713C25.0954 38.5713 24.7878 38.7259 24.56 39.0352C24.3321 39.3411 24.2182 39.8001 24.2182 40.4121ZM29.2375 43V37.7168H31.3811C32.1037 37.7168 32.6538 37.8438 33.0314 38.0977C33.409 38.3483 33.5979 38.7096 33.5979 39.1816C33.5979 39.4258 33.5214 39.6455 33.3684 39.8408C33.2186 40.0329 32.9956 40.181 32.6994 40.2852C33.0445 40.3568 33.3179 40.5016 33.5197 40.7197C33.7215 40.9378 33.8225 41.195 33.8225 41.4912C33.8225 41.9827 33.6402 42.3571 33.2756 42.6143C32.9143 42.8714 32.3934 43 31.7131 43H29.2375ZM30.424 40.749V42.0625H31.7229C32.3316 42.0625 32.6359 41.8444 32.6359 41.4082C32.6359 40.9688 32.3267 40.749 31.7082 40.749H30.424ZM30.424 39.8994H31.4006C32.0744 39.8994 32.4113 39.7008 32.4113 39.3037C32.4113 38.887 32.0923 38.6722 31.4543 38.6592H30.424V39.8994ZM34.8281 40.3096C34.8281 39.792 34.9307 39.3265 35.1357 38.9131C35.3408 38.4964 35.6289 38.1774 36 37.9561C36.3711 37.7314 36.7975 37.6191 37.2793 37.6191C37.9922 37.6191 38.57 37.8486 39.0127 38.3076C39.4587 38.7666 39.6995 39.3753 39.7354 40.1338L39.7402 40.4121C39.7402 40.9329 39.6393 41.3984 39.4375 41.8086C39.2389 42.2188 38.9525 42.5361 38.5781 42.7607C38.207 42.9854 37.7773 43.0977 37.2891 43.0977C36.5436 43.0977 35.9463 42.8503 35.4971 42.3555C35.0511 41.8574 34.8281 41.195 34.8281 40.3682V40.3096ZM36.0146 40.4121C36.0146 40.9557 36.127 41.3822 36.3516 41.6914C36.5762 41.9974 36.8887 42.1504 37.2891 42.1504C37.6895 42.1504 38.0003 41.9941 38.2217 41.6816C38.4463 41.3691 38.5586 40.9118 38.5586 40.3096C38.5586 39.7757 38.443 39.3525 38.2119 39.04C37.984 38.7275 37.6732 38.5713 37.2793 38.5713C36.8919 38.5713 36.5843 38.7259 36.3564 39.0352C36.1286 39.3411 36.0146 39.8001 36.0146 40.4121ZM43.1141 42.1504C43.4103 42.1504 43.6561 42.0641 43.8514 41.8916C44.0467 41.7191 44.1508 41.5059 44.1639 41.252H45.282C45.269 41.5807 45.1665 41.8883 44.9744 42.1748C44.7824 42.458 44.5219 42.6826 44.1932 42.8486C43.8644 43.0146 43.5096 43.0977 43.1287 43.0977C42.3898 43.0977 41.8038 42.8584 41.3709 42.3799C40.938 41.9014 40.7215 41.2406 40.7215 40.3975V40.2754C40.7215 39.4714 40.9363 38.8285 41.366 38.3467C41.7957 37.8617 42.3816 37.6191 43.1238 37.6191C43.7521 37.6191 44.2631 37.8031 44.657 38.1709C45.0542 38.5355 45.2625 39.0156 45.282 39.6113H44.1639C44.1508 39.3086 44.0467 39.0596 43.8514 38.8643C43.6593 38.6689 43.4135 38.5713 43.1141 38.5713C42.7299 38.5713 42.4337 38.7113 42.2254 38.9912C42.0171 39.2679 41.9113 39.6895 41.908 40.2559V40.4463C41.908 41.0192 42.0105 41.4473 42.2156 41.7305C42.424 42.0104 42.7234 42.1504 43.1141 42.1504ZM50.5357 38.6592H48.8219V43H47.6354V38.6592H45.941V37.7168H50.5357V38.6592ZM54.8275 37.7168H56.0092V43H54.8275V39.4746L52.7572 43H51.5756V37.7168H52.7572V41.2422L54.8275 37.7168Z" fill="#99A2AD"/>
</svg>
