<svg width="28" height="28" viewBox="0 0 28 28" fill="none" xmlns="http://www.w3.org/2000/svg">
<path fill-rule="evenodd" clip-rule="evenodd" d="M16.8663 3H10.1337C8.2781 3 7.58985 3.15559 6.90734 3.52299C6.30907 3.84503 5.83955 4.31763 5.51959 4.9198C5.15458 5.60677 5 6.29952 5 8.16727V19.8327C5 21.7005 5.15458 22.3932 5.51959 23.0802C5.83955 23.6824 6.30907 24.155 6.90734 24.477C7.58985 24.8444 8.2781 25 10.1337 25H16.8663C18.7219 25 19.4102 24.8444 20.0927 24.477C20.6909 24.155 21.1605 23.6824 21.4804 23.0802C21.8454 22.3932 22 21.7005 22 19.8327V8.16727C22 6.29952 21.8454 5.60677 21.4804 4.9198C21.1605 4.31763 20.6909 3.84503 20.0927 3.52299C19.4102 3.15559 18.7219 3 16.8663 3Z" stroke="#4986CC" stroke-width="1.8"/>
<path fill-rule="evenodd" clip-rule="evenodd" d="M15.6782 6.00015H11.3218C10.1211 6.00015 10.5 6.00014 9.5 6.00014C9 6.00014 8.61231 5.98576 8.40528 6.09525C8.1691 6.22015 8 6.60006 8 6.93965V9.06064C8 9.40023 8.1691 9.78015 8.40528 9.90506C8.61231 10.0145 8.5 10.0002 9 10.0002C9.5 10.0002 10.1211 10.0001 11.3218 10.0001H15.6782C16.8789 10.0001 17.3192 10.0002 17.7658 10.0001C18 10.0001 18.4568 10.0145 18.6638 9.90506C18.9 9.78015 19 9.40023 19 9.06064V6.93965C19 6.60006 18.9 6.22015 18.6638 6.09525C18.4568 5.98576 18.1411 6.00013 17.7658 6.00014C17 6.00016 16.8789 6.00015 15.6782 6.00015Z" stroke="#4986CC" stroke-width="1.8"/>
<path fill-rule="evenodd" clip-rule="evenodd" d="M9.15897 13.0002H8.50141C8.32017 13.0002 8.37736 13.0002 8.22642 13.0002C8.15094 13.0002 8.09242 12.9966 8.06117 13.0239C8.02552 13.0551 8 13.1501 8 13.235V13.765C8 13.8499 8.02552 13.9449 8.06117 13.9761C8.09242 14.0034 8.07547 13.9998 8.15094 13.9998C8.22642 13.9998 8.32017 13.9998 8.50141 13.9998H9.15897C9.34021 13.9998 9.40667 13.9999 9.47409 13.9998C9.50943 13.9998 9.57838 14.0034 9.60963 13.9761C9.64528 13.9449 9.66038 13.8499 9.66038 13.765V13.235C9.66038 13.1501 9.64528 13.0551 9.60963 13.0239C9.57838 12.9966 9.53074 13.0002 9.47409 13.0002C9.35849 13.0002 9.34021 13.0002 9.15897 13.0002Z" stroke="#4986CC" stroke-width="1.5"/>
<path fill-rule="evenodd" clip-rule="evenodd" d="M13.8289 13.0002H13.1713C12.9901 13.0002 13.0473 13.0002 12.8963 13.0002C12.8209 13.0002 12.7623 12.9966 12.7311 13.0239C12.6954 13.0551 12.6699 13.1501 12.6699 13.235V13.765C12.6699 13.8499 12.6954 13.9449 12.7311 13.9761C12.7623 14.0034 12.7454 13.9998 12.8209 13.9998C12.8963 13.9998 12.9901 13.9998 13.1713 13.9998H13.8289C14.0101 13.9998 14.0766 13.9999 14.144 13.9998C14.1794 13.9998 14.2483 14.0034 14.2796 13.9761C14.3152 13.9449 14.3303 13.8499 14.3303 13.765V13.235C14.3303 13.1501 14.3152 13.0551 14.2796 13.0239C14.2483 12.9966 14.2007 13.0002 14.144 13.0002C14.0284 13.0002 14.0101 13.0002 13.8289 13.0002Z" stroke="#4986CC" stroke-width="1.5"/>
<path fill-rule="evenodd" clip-rule="evenodd" d="M18.4986 13.0002H17.841C17.6598 13.0002 17.717 13.0002 17.566 13.0002C17.4905 13.0002 17.432 12.9966 17.4008 13.0239C17.3651 13.0551 17.3396 13.1501 17.3396 13.235V13.765C17.3396 13.8499 17.3651 13.9449 17.4008 13.9761C17.432 14.0034 17.4151 13.9998 17.4905 13.9998C17.566 13.9998 17.6598 13.9998 17.841 13.9998H18.4986C18.6798 13.9998 18.7463 13.9999 18.8137 13.9998C18.849 13.9998 18.918 14.0034 18.9492 13.9761C18.9849 13.9449 19 13.8499 19 13.765V13.235C19 13.1501 18.9849 13.0551 18.9492 13.0239C18.918 12.9966 18.8703 13.0002 18.8137 13.0002C18.6981 13.0002 18.6798 13.0002 18.4986 13.0002Z" stroke="#4986CC" stroke-width="1.5"/>
<path fill-rule="evenodd" clip-rule="evenodd" d="M9.15897 16.8002H8.50141C8.32017 16.8002 8.37736 16.8002 8.22642 16.8002C8.15094 16.8002 8.09242 16.7966 8.06117 16.824C8.02552 16.8552 8 16.9501 8 17.035V17.5651C8 17.65 8.02552 17.7449 8.06117 17.7761C8.09242 17.8035 8.07547 17.7999 8.15094 17.7999C8.22642 17.7999 8.32017 17.7999 8.50141 17.7999H9.15897C9.34021 17.7999 9.40667 17.7999 9.47409 17.7999C9.50943 17.7999 9.57838 17.8035 9.60963 17.7761C9.64528 17.7449 9.66038 17.65 9.66038 17.5651V17.035C9.66038 16.9501 9.64528 16.8552 9.60963 16.824C9.57838 16.7966 9.53074 16.8002 9.47409 16.8002C9.35849 16.8002 9.34021 16.8002 9.15897 16.8002Z" stroke="#4986CC" stroke-width="1.5"/>
<path fill-rule="evenodd" clip-rule="evenodd" d="M13.8289 16.8002H13.1713C12.9901 16.8002 13.0473 16.8002 12.8963 16.8002C12.8209 16.8002 12.7623 16.7966 12.7311 16.824C12.6954 16.8552 12.6699 16.9501 12.6699 17.035V17.5651C12.6699 17.65 12.6954 17.7449 12.7311 17.7761C12.7623 17.8035 12.7454 17.7999 12.8209 17.7999C12.8963 17.7999 12.9901 17.7999 13.1713 17.7999H13.8289C14.0101 17.7999 14.0766 17.7999 14.144 17.7999C14.1794 17.7999 14.2483 17.8035 14.2796 17.7761C14.3152 17.7449 14.3303 17.65 14.3303 17.5651V17.035C14.3303 16.9501 14.3152 16.8552 14.2796 16.824C14.2483 16.7966 14.2007 16.8002 14.144 16.8002C14.0284 16.8002 14.0101 16.8002 13.8289 16.8002Z" stroke="#4986CC" stroke-width="1.5"/>
<path fill-rule="evenodd" clip-rule="evenodd" d="M18.4986 16.8002H17.841C17.6598 16.8002 17.717 16.8002 17.566 16.8002C17.4905 16.8002 17.432 16.7966 17.4008 16.824C17.3651 16.8552 17.3396 16.9501 17.3396 17.035V17.5651C17.3396 17.65 17.3651 17.7449 17.4008 17.7761C17.432 17.8035 17.4151 17.7999 17.4905 17.7999C17.566 17.7999 17.6598 17.7999 17.841 17.7999H18.4986C18.6798 17.7999 18.7463 17.7999 18.8137 17.7999C18.849 17.7999 18.918 17.8035 18.9492 17.7761C18.9849 17.7449 19 17.65 19 17.5651V17.035C19 16.9501 18.9849 16.8552 18.9492 16.824C18.918 16.7966 18.8703 16.8002 18.8137 16.8002C18.6981 16.8002 18.6798 16.8002 18.4986 16.8002Z" stroke="#4986CC" stroke-width="1.5"/>
<path fill-rule="evenodd" clip-rule="evenodd" d="M9.15897 21.0002H8.50141C8.32017 21.0002 8.37736 21.0002 8.22642 21.0002C8.15094 21.0002 8.09242 20.9966 8.06117 21.0239C8.02552 21.0551 8 21.1501 8 21.235V21.765C8 21.8499 8.02552 21.9449 8.06117 21.9761C8.09242 22.0034 8.07547 21.9998 8.15094 21.9998C8.22642 21.9998 8.32017 21.9998 8.50141 21.9998H9.15897C9.34021 21.9998 9.40667 21.9999 9.47409 21.9998C9.50943 21.9998 9.57838 22.0034 9.60963 21.9761C9.64528 21.9449 9.66038 21.8499 9.66038 21.765V21.235C9.66038 21.1501 9.64528 21.0551 9.60963 21.0239C9.57838 20.9966 9.53074 21.0002 9.47409 21.0002C9.35849 21.0002 9.34021 21.0002 9.15897 21.0002Z" stroke="#4986CC" stroke-width="1.5"/>
<path fill-rule="evenodd" clip-rule="evenodd" d="M13.8289 21.0002H13.1713C12.9901 21.0002 13.0473 21.0002 12.8963 21.0002C12.8209 21.0002 12.7623 20.9966 12.7311 21.0239C12.6954 21.0551 12.6699 21.1501 12.6699 21.235V21.765C12.6699 21.8499 12.6954 21.9449 12.7311 21.9761C12.7623 22.0034 12.7454 21.9998 12.8209 21.9998C12.8963 21.9998 12.9901 21.9998 13.1713 21.9998H13.8289C14.0101 21.9998 14.0766 21.9999 14.144 21.9998C14.1794 21.9998 14.2483 22.0034 14.2796 21.9761C14.3152 21.9449 14.3303 21.8499 14.3303 21.765V21.235C14.3303 21.1501 14.3152 21.0551 14.2796 21.0239C14.2483 20.9966 14.2007 21.0002 14.144 21.0002C14.0284 21.0002 14.0101 21.0002 13.8289 21.0002Z" stroke="#4986CC" stroke-width="1.5"/>
<path fill-rule="evenodd" clip-rule="evenodd" d="M18.4986 21.0002H17.841C17.6598 21.0002 17.717 21.0002 17.566 21.0002C17.4905 21.0002 17.432 20.9966 17.4008 21.0239C17.3651 21.0551 17.3396 21.1501 17.3396 21.235V21.765C17.3396 21.8499 17.3651 21.9449 17.4008 21.9761C17.432 22.0034 17.4151 21.9998 17.4905 21.9998C17.566 21.9998 17.6598 21.9998 17.841 21.9998H18.4986C18.6798 21.9998 18.7463 21.9999 18.8137 21.9998C18.849 21.9998 18.918 22.0034 18.9492 21.9761C18.9849 21.9449 19 21.8499 19 21.765V21.235C19 21.1501 18.9849 21.0551 18.9492 21.0239C18.918 20.9966 18.8703 21.0002 18.8137 21.0002C18.6981 21.0002 18.6798 21.0002 18.4986 21.0002Z" stroke="#4986CC" stroke-width="1.5"/>
</svg>
