<svg width="68" height="42" viewBox="0 0 68 42" fill="none" xmlns="http://www.w3.org/2000/svg">
<path fill-rule="evenodd" clip-rule="evenodd" d="M36.8663 3H30.1337C28.2781 3 27.5898 3.15559 26.9073 3.52299C26.3091 3.84503 25.8395 4.31763 25.5196 4.9198C25.1546 5.60677 25 6.29952 25 8.16727V19.8327C25 21.7005 25.1546 22.3932 25.5196 23.0802C25.8395 23.6824 26.3091 24.155 26.9073 24.477C27.5898 24.8444 28.2781 25 30.1337 25H36.8663C38.7219 25 39.4102 24.8444 40.0927 24.477C40.6909 24.155 41.1605 23.6824 41.4804 23.0802C41.8454 22.3932 42 21.7005 42 19.8327V8.16727C42 6.29952 41.8454 5.60677 41.4804 4.9198C41.1605 4.31763 40.6909 3.84503 40.0927 3.52299C39.4102 3.15559 38.7219 3 36.8663 3Z" stroke="#4986CC" stroke-width="1.8"/>
<path fill-rule="evenodd" clip-rule="evenodd" d="M35.6782 6.00015H31.3218C30.1211 6.00015 30.5 6.00014 29.5 6.00014C29 6.00014 28.6123 5.98576 28.4053 6.09525C28.1691 6.22015 28 6.60006 28 6.93965V9.06064C28 9.40023 28.1691 9.78015 28.4053 9.90506C28.6123 10.0145 28.5 10.0002 29 10.0002C29.5 10.0002 30.1211 10.0001 31.3218 10.0001H35.6782C36.8789 10.0001 37.3192 10.0002 37.7658 10.0001C38 10.0001 38.4568 10.0145 38.6638 9.90506C38.9 9.78015 39 9.40023 39 9.06064V6.93965C39 6.60006 38.9 6.22015 38.6638 6.09525C38.4568 5.98576 38.1411 6.00013 37.7658 6.00014C37 6.00016 36.8789 6.00015 35.6782 6.00015Z" stroke="#4986CC" stroke-width="1.8"/>
<path fill-rule="evenodd" clip-rule="evenodd" d="M29.159 13.0002H28.5014C28.3202 13.0002 28.3774 13.0002 28.2264 13.0002C28.1509 13.0002 28.0924 12.9966 28.0612 13.0239C28.0255 13.0551 28 13.1501 28 13.235V13.765C28 13.8499 28.0255 13.9449 28.0612 13.9761C28.0924 14.0034 28.0755 13.9998 28.1509 13.9998C28.2264 13.9998 28.3202 13.9998 28.5014 13.9998H29.159C29.3402 13.9998 29.4067 13.9999 29.4741 13.9998C29.5094 13.9998 29.5784 14.0034 29.6096 13.9761C29.6453 13.9449 29.6604 13.8499 29.6604 13.765V13.235C29.6604 13.1501 29.6453 13.0551 29.6096 13.0239C29.5784 12.9966 29.5307 13.0002 29.4741 13.0002C29.3585 13.0002 29.3402 13.0002 29.159 13.0002Z" stroke="#4986CC" stroke-width="1.5"/>
<path fill-rule="evenodd" clip-rule="evenodd" d="M33.8289 13.0002H33.1713C32.9901 13.0002 33.0473 13.0002 32.8963 13.0002C32.8209 13.0002 32.7623 12.9966 32.7311 13.0239C32.6954 13.0551 32.6699 13.1501 32.6699 13.235V13.765C32.6699 13.8499 32.6954 13.9449 32.7311 13.9761C32.7623 14.0034 32.7454 13.9998 32.8209 13.9998C32.8963 13.9998 32.9901 13.9998 33.1713 13.9998H33.8289C34.0101 13.9998 34.0766 13.9999 34.144 13.9998C34.1794 13.9998 34.2483 14.0034 34.2796 13.9761C34.3152 13.9449 34.3303 13.8499 34.3303 13.765V13.235C34.3303 13.1501 34.3152 13.0551 34.2796 13.0239C34.2483 12.9966 34.2007 13.0002 34.144 13.0002C34.0284 13.0002 34.0101 13.0002 33.8289 13.0002Z" stroke="#4986CC" stroke-width="1.5"/>
<path fill-rule="evenodd" clip-rule="evenodd" d="M38.4986 13.0002H37.841C37.6598 13.0002 37.717 13.0002 37.566 13.0002C37.4905 13.0002 37.432 12.9966 37.4008 13.0239C37.3651 13.0551 37.3396 13.1501 37.3396 13.235V13.765C37.3396 13.8499 37.3651 13.9449 37.4008 13.9761C37.432 14.0034 37.4151 13.9998 37.4905 13.9998C37.566 13.9998 37.6598 13.9998 37.841 13.9998H38.4986C38.6798 13.9998 38.7463 13.9999 38.8137 13.9998C38.849 13.9998 38.918 14.0034 38.9492 13.9761C38.9849 13.9449 39 13.8499 39 13.765V13.235C39 13.1501 38.9849 13.0551 38.9492 13.0239C38.918 12.9966 38.8703 13.0002 38.8137 13.0002C38.6981 13.0002 38.6798 13.0002 38.4986 13.0002Z" stroke="#4986CC" stroke-width="1.5"/>
<path fill-rule="evenodd" clip-rule="evenodd" d="M29.159 16.8002H28.5014C28.3202 16.8002 28.3774 16.8002 28.2264 16.8002C28.1509 16.8002 28.0924 16.7966 28.0612 16.824C28.0255 16.8552 28 16.9501 28 17.035V17.5651C28 17.65 28.0255 17.7449 28.0612 17.7761C28.0924 17.8035 28.0755 17.7999 28.1509 17.7999C28.2264 17.7999 28.3202 17.7999 28.5014 17.7999H29.159C29.3402 17.7999 29.4067 17.7999 29.4741 17.7999C29.5094 17.7999 29.5784 17.8035 29.6096 17.7761C29.6453 17.7449 29.6604 17.65 29.6604 17.5651V17.035C29.6604 16.9501 29.6453 16.8552 29.6096 16.824C29.5784 16.7966 29.5307 16.8002 29.4741 16.8002C29.3585 16.8002 29.3402 16.8002 29.159 16.8002Z" stroke="#4986CC" stroke-width="1.5"/>
<path fill-rule="evenodd" clip-rule="evenodd" d="M33.8289 16.8002H33.1713C32.9901 16.8002 33.0473 16.8002 32.8963 16.8002C32.8209 16.8002 32.7623 16.7966 32.7311 16.824C32.6954 16.8552 32.6699 16.9501 32.6699 17.035V17.5651C32.6699 17.65 32.6954 17.7449 32.7311 17.7761C32.7623 17.8035 32.7454 17.7999 32.8209 17.7999C32.8963 17.7999 32.9901 17.7999 33.1713 17.7999H33.8289C34.0101 17.7999 34.0766 17.7999 34.144 17.7999C34.1794 17.7999 34.2483 17.8035 34.2796 17.7761C34.3152 17.7449 34.3303 17.65 34.3303 17.5651V17.035C34.3303 16.9501 34.3152 16.8552 34.2796 16.824C34.2483 16.7966 34.2007 16.8002 34.144 16.8002C34.0284 16.8002 34.0101 16.8002 33.8289 16.8002Z" stroke="#4986CC" stroke-width="1.5"/>
<path fill-rule="evenodd" clip-rule="evenodd" d="M38.4986 16.8002H37.841C37.6598 16.8002 37.717 16.8002 37.566 16.8002C37.4905 16.8002 37.432 16.7966 37.4008 16.824C37.3651 16.8552 37.3396 16.9501 37.3396 17.035V17.5651C37.3396 17.65 37.3651 17.7449 37.4008 17.7761C37.432 17.8035 37.4151 17.7999 37.4905 17.7999C37.566 17.7999 37.6598 17.7999 37.841 17.7999H38.4986C38.6798 17.7999 38.7463 17.7999 38.8137 17.7999C38.849 17.7999 38.918 17.8035 38.9492 17.7761C38.9849 17.7449 39 17.65 39 17.5651V17.035C39 16.9501 38.9849 16.8552 38.9492 16.824C38.918 16.7966 38.8703 16.8002 38.8137 16.8002C38.6981 16.8002 38.6798 16.8002 38.4986 16.8002Z" stroke="#4986CC" stroke-width="1.5"/>
<path fill-rule="evenodd" clip-rule="evenodd" d="M29.159 21.0002H28.5014C28.3202 21.0002 28.3774 21.0002 28.2264 21.0002C28.1509 21.0002 28.0924 20.9966 28.0612 21.0239C28.0255 21.0551 28 21.1501 28 21.235V21.765C28 21.8499 28.0255 21.9449 28.0612 21.9761C28.0924 22.0034 28.0755 21.9998 28.1509 21.9998C28.2264 21.9998 28.3202 21.9998 28.5014 21.9998H29.159C29.3402 21.9998 29.4067 21.9999 29.4741 21.9998C29.5094 21.9998 29.5784 22.0034 29.6096 21.9761C29.6453 21.9449 29.6604 21.8499 29.6604 21.765V21.235C29.6604 21.1501 29.6453 21.0551 29.6096 21.0239C29.5784 20.9966 29.5307 21.0002 29.4741 21.0002C29.3585 21.0002 29.3402 21.0002 29.159 21.0002Z" stroke="#4986CC" stroke-width="1.5"/>
<path fill-rule="evenodd" clip-rule="evenodd" d="M33.8289 21.0002H33.1713C32.9901 21.0002 33.0473 21.0002 32.8963 21.0002C32.8209 21.0002 32.7623 20.9966 32.7311 21.0239C32.6954 21.0551 32.6699 21.1501 32.6699 21.235V21.765C32.6699 21.8499 32.6954 21.9449 32.7311 21.9761C32.7623 22.0034 32.7454 21.9998 32.8209 21.9998C32.8963 21.9998 32.9901 21.9998 33.1713 21.9998H33.8289C34.0101 21.9998 34.0766 21.9999 34.144 21.9998C34.1794 21.9998 34.2483 22.0034 34.2796 21.9761C34.3152 21.9449 34.3303 21.8499 34.3303 21.765V21.235C34.3303 21.1501 34.3152 21.0551 34.2796 21.0239C34.2483 20.9966 34.2007 21.0002 34.144 21.0002C34.0284 21.0002 34.0101 21.0002 33.8289 21.0002Z" stroke="#4986CC" stroke-width="1.5"/>
<path fill-rule="evenodd" clip-rule="evenodd" d="M38.4986 21.0002H37.841C37.6598 21.0002 37.717 21.0002 37.566 21.0002C37.4905 21.0002 37.432 20.9966 37.4008 21.0239C37.3651 21.0551 37.3396 21.1501 37.3396 21.235V21.765C37.3396 21.8499 37.3651 21.9449 37.4008 21.9761C37.432 22.0034 37.4151 21.9998 37.4905 21.9998C37.566 21.9998 37.6598 21.9998 37.841 21.9998H38.4986C38.6798 21.9998 38.7463 21.9999 38.8137 21.9998C38.849 21.9998 38.918 22.0034 38.9492 21.9761C38.9849 21.9449 39 21.8499 39 21.765V21.235C39 21.1501 38.9849 21.0551 38.9492 21.0239C38.918 20.9966 38.8703 21.0002 38.8137 21.0002C38.6981 21.0002 38.6798 21.0002 38.4986 21.0002Z" stroke="#4986CC" stroke-width="1.5"/>
<path d="M5.45117 35.9531H4.61133V39H3.38086V31.8906H4.61133V34.8789H5.29004L7.37988 31.8906H8.89355L6.45215 35.2939L9.1084 39H7.62402L5.45117 35.9531ZM13.034 39C12.9819 38.8991 12.9363 38.7347 12.8973 38.5068C12.5197 38.9007 12.0574 39.0977 11.5105 39.0977C10.9799 39.0977 10.547 38.9463 10.2117 38.6436C9.87643 38.3408 9.70879 37.9665 9.70879 37.5205C9.70879 36.9574 9.91712 36.526 10.3338 36.2266C10.7537 35.9238 11.3527 35.7725 12.1307 35.7725H12.8582V35.4258C12.8582 35.1523 12.7817 34.9342 12.6287 34.7715C12.4757 34.6055 12.243 34.5225 11.9305 34.5225C11.6603 34.5225 11.4389 34.5908 11.2664 34.7275C11.0939 34.861 11.0076 35.0319 11.0076 35.2402H9.82109C9.82109 34.9505 9.91712 34.6803 10.1092 34.4297C10.3012 34.1758 10.5617 33.9772 10.8904 33.834C11.2225 33.6908 11.5919 33.6191 11.9988 33.6191C12.6173 33.6191 13.1105 33.7754 13.4783 34.0879C13.8462 34.3971 14.035 34.8333 14.0447 35.3965V37.7793C14.0447 38.2546 14.1115 38.6338 14.2449 38.917V39H13.034ZM11.7303 38.1455C11.9646 38.1455 12.1844 38.0885 12.3895 37.9746C12.5978 37.8607 12.754 37.7077 12.8582 37.5156V36.5195H12.2186C11.7791 36.5195 11.4487 36.596 11.2273 36.749C11.006 36.902 10.8953 37.1185 10.8953 37.3984C10.8953 37.6263 10.9702 37.8086 11.1199 37.9453C11.2729 38.0788 11.4764 38.1455 11.7303 38.1455ZM19.9771 33.7168V39H18.7906V34.6738H17.2965L17.1988 36.5146C17.137 37.4001 16.9661 38.0365 16.6861 38.4238C16.4094 38.8079 15.9846 39 15.4117 39H15.0455L15.0406 38.0137L15.2848 37.9893C15.5452 37.9535 15.734 37.7956 15.8512 37.5156C15.9716 37.2324 16.0481 36.7181 16.0807 35.9727L16.1783 33.7168H19.9771ZM22.7162 35.3965H23.8783C24.3113 35.3965 24.6889 35.4714 25.0111 35.6211C25.3334 35.7708 25.5775 35.9808 25.7436 36.251C25.9128 36.5212 25.9975 36.8353 25.9975 37.1934C25.9975 37.737 25.8054 38.1732 25.4213 38.502C25.0372 38.8307 24.5261 38.9967 23.8881 39H21.5297V33.7168H22.7162V35.3965ZM22.7162 36.3486V38.0527H23.8734C24.1632 38.0527 24.391 37.9811 24.557 37.8379C24.7263 37.6914 24.8109 37.4847 24.8109 37.2178C24.8109 36.9508 24.7279 36.7409 24.5619 36.5879C24.3992 36.4316 24.1778 36.3519 23.8979 36.3486H22.7162ZM29.0246 36.9102H28.424V39H27.2375V33.7168H28.424V35.8262H28.9465L30.4064 33.7168H31.8713L29.9621 36.2461L32.0324 39H30.4895L29.0246 36.9102ZM34.7324 37.3008L35.8066 33.7168H37.0713L34.9717 39.8008C34.6494 40.6895 34.1025 41.1338 33.3311 41.1338C33.1585 41.1338 32.9681 41.1045 32.7598 41.0459V40.1279L32.9844 40.1426C33.2839 40.1426 33.5085 40.0872 33.6582 39.9766C33.8112 39.8691 33.9316 39.6868 34.0195 39.4297L34.1904 38.9756L32.335 33.7168H33.6143L34.7324 37.3008ZM42.242 33.7168V39H41.0555V34.6738H39.5613L39.4637 36.5146C39.4018 37.4001 39.2309 38.0365 38.951 38.4238C38.6743 38.8079 38.2495 39 37.6766 39H37.3104L37.3055 38.0137L37.5496 37.9893C37.81 37.9535 37.9988 37.7956 38.116 37.5156C38.2365 37.2324 38.313 36.7181 38.3455 35.9727L38.4432 33.7168H42.242ZM47.9352 33.7168V39H46.7535V37.0615H45.6451L44.5172 39H43.2867L44.5318 36.8662C44.2063 36.7295 43.9557 36.5342 43.7799 36.2803C43.6074 36.0264 43.5211 35.735 43.5211 35.4062C43.5211 34.9147 43.7099 34.5127 44.0875 34.2002C44.4684 33.8844 44.9811 33.7233 45.6256 33.7168H47.9352ZM44.7076 35.4355C44.7076 35.6569 44.789 35.8376 44.9518 35.9775C45.1178 36.1143 45.3294 36.1826 45.5865 36.1826H46.7535V34.6592H45.6598C45.3701 34.6592 45.1389 34.7324 44.9664 34.8789C44.7939 35.0254 44.7076 35.2109 44.7076 35.4355ZM53.6088 34.6592H51.8949V39H50.7084V34.6592H49.0141V33.7168H53.6088V34.6592ZM54.2336 36.3096C54.2336 35.792 54.3361 35.3265 54.5412 34.9131C54.7463 34.4964 55.0344 34.1774 55.4055 33.9561C55.7766 33.7314 56.203 33.6191 56.6848 33.6191C57.3977 33.6191 57.9755 33.8486 58.4182 34.3076C58.8641 34.7666 59.105 35.3753 59.1408 36.1338L59.1457 36.4121C59.1457 36.9329 59.0448 37.3984 58.843 37.8086C58.6444 38.2188 58.3579 38.5361 57.9836 38.7607C57.6125 38.9854 57.1828 39.0977 56.6945 39.0977C55.9491 39.0977 55.3518 38.8503 54.9025 38.3555C54.4566 37.8574 54.2336 37.195 54.2336 36.3682V36.3096ZM55.4201 36.4121C55.4201 36.9557 55.5324 37.3822 55.757 37.6914C55.9816 37.9974 56.2941 38.1504 56.6945 38.1504C57.0949 38.1504 57.4058 37.9941 57.6271 37.6816C57.8518 37.3691 57.9641 36.9118 57.9641 36.3096C57.9641 35.7757 57.8485 35.3525 57.6174 35.04C57.3895 34.7275 57.0786 34.5713 56.6848 34.5713C56.2974 34.5713 55.9898 34.7259 55.7619 35.0352C55.534 35.3411 55.4201 35.8001 55.4201 36.4121ZM64.9756 36.4121C64.9756 37.2292 64.79 37.8818 64.4189 38.3701C64.0479 38.8551 63.5498 39.0977 62.9248 39.0977C62.3454 39.0977 61.8815 38.9072 61.5332 38.5264V41.0312H60.3467V33.7168H61.4404L61.4893 34.2539C61.8376 33.8307 62.3112 33.6191 62.9102 33.6191C63.5547 33.6191 64.0592 33.86 64.4238 34.3418C64.7917 34.8203 64.9756 35.486 64.9756 36.3389V36.4121ZM63.7939 36.3096C63.7939 35.7822 63.6882 35.3639 63.4766 35.0547C63.2682 34.7454 62.9688 34.5908 62.5781 34.5908C62.0931 34.5908 61.7448 34.791 61.5332 35.1914V37.5352C61.748 37.9453 62.0996 38.1504 62.5879 38.1504C62.9655 38.1504 63.2601 37.999 63.4717 37.6963C63.6865 37.3903 63.7939 36.9281 63.7939 36.3096Z" fill="#4986CC"/>
</svg>
