<svg width="22" height="26" viewBox="0 0 22 26" fill="none" xmlns="http://www.w3.org/2000/svg">
<g clip-path="url(#clip0)">
<path d="M11.0046 2.5C15.5359 2.5 19 6.29407 19 11.0815L18.9954 12.9081C18.9958 13.2154 19.1946 13.5707 19.7335 14.205C19.8012 14.2847 19.8649 14.3585 20.0043 14.5195C21.0744 15.7577 21.5 16.4745 21.5 17.5882C21.5 18.0893 21.443 18.4785 21.2056 18.9456C20.6996 19.9409 19.6182 20.5 18 20.5L15.3989 20.5007C14.731 22.7645 13.2123 24 11 24C8.78768 24 7.26905 22.7645 6.60115 20.5007L4 20.5C2.33483 20.5 1.24203 19.9258 0.757975 18.8962C0.54802 18.4497 0.5 18.0875 0.5 17.5882C0.5 16.475 0.924754 15.7582 1.99283 14.5202C2.13191 14.3592 2.19552 14.2854 2.26308 14.2057C2.80171 13.5706 3 13.2151 3 12.9071V11.0789C3 6.29571 6.47202 2.5 11.0046 2.5ZM13.2794 20.5008H8.7206C9.17139 21.5432 9.89866 22 11 22C12.1013 22 12.8286 21.5432 13.2794 20.5008ZM11.0046 4.5C7.61835 4.5 5 7.36245 5 11.0789V12.9071C5 13.8348 4.6156 14.5239 3.78841 15.4993C3.71509 15.5857 3.64587 15.6661 3.50717 15.8266C2.74712 16.7076 2.5 17.1246 2.5 17.5882C2.5 17.8144 2.51597 17.9348 2.56791 18.0453C2.69184 18.3089 3.05558 18.5 4 18.5H18C18.9142 18.5 19.2863 18.3076 19.4228 18.0392C19.4818 17.923 19.5 17.7989 19.5 17.5882C19.5 17.1251 19.2524 16.7081 18.4911 15.8273C18.3522 15.6668 18.2828 15.5864 18.2094 15.5C17.3806 14.5245 16.9954 13.8353 16.9954 12.9071L17 11.0789C17 7.36008 14.3886 4.5 11.0046 4.5Z" fill="#3F8AE0"/>
</g>
<defs>
<clipPath id="clip0">
<rect width="22" height="26" fill="white"/>
</clipPath>
</defs>
</svg>
