<svg width="376" height="747" viewBox="0 0 376 747" fill="none" xmlns="http://www.w3.org/2000/svg">
<g filter="url(#filter0_dd)">
<path d="M24 26C24 23.7909 25.7909 22 28 22H348C350.209 22 352 23.7909 352 26V710.592C352 712.182 351.058 713.622 349.6 714.258L343.562 716.894C342.564 717.329 341.432 717.339 340.426 716.921L333.684 714.119C332.337 713.558 330.792 713.776 329.652 714.687L323.188 719.852C321.643 721.087 319.427 721.007 317.974 719.663L313.526 715.547C312.073 714.204 309.857 714.123 308.312 715.358L302.688 719.852C301.143 721.087 298.927 721.007 297.474 719.663L293.026 715.547C291.573 714.204 289.357 714.123 287.812 715.358L282.188 719.852C280.643 721.087 278.427 721.007 276.974 719.663L272.648 715.66C271.143 714.268 268.83 714.239 267.291 715.592L262.577 719.735C261.094 721.038 258.883 721.065 257.369 719.798L252.131 715.413C250.617 714.146 248.406 714.172 246.923 715.476L242.077 719.735C240.594 721.038 238.383 721.065 236.869 719.798L231.631 715.413C230.117 714.146 227.906 714.172 226.423 715.476L221.577 719.735C220.094 721.038 217.883 721.065 216.369 719.798L211.131 715.413C209.617 714.146 207.406 714.172 205.923 715.476L201.077 719.735C199.594 721.038 197.383 721.065 195.869 719.798L190.631 715.413C189.117 714.146 186.906 714.172 185.423 715.476L180.577 719.735C179.094 721.038 176.883 721.065 175.369 719.798L170.131 715.413C168.617 714.146 166.406 714.172 164.923 715.476L160.077 719.735C158.594 721.038 156.383 721.065 154.869 719.798L149.631 715.413C148.117 714.146 145.906 714.172 144.423 715.476L139.577 719.735C138.094 721.038 135.883 721.065 134.369 719.798L129.131 715.413C127.617 714.146 125.406 714.172 123.923 715.476L119.077 719.735C117.594 721.038 115.383 721.065 113.869 719.798L108.509 715.31C107.049 714.089 104.931 714.065 103.444 715.253L97.688 719.852C96.1425 721.087 93.9265 721.007 92.4745 719.663L88.0255 715.547C86.5735 714.204 84.3575 714.123 82.812 715.358L77.188 719.852C75.6425 721.087 73.4265 721.007 71.9745 719.663L67.5255 715.547C66.0735 714.204 63.8575 714.123 62.312 715.358L56.688 719.852C55.1425 721.087 52.9265 721.007 51.4745 719.663L46.3084 714.884C45.1995 713.858 43.6073 713.544 42.1921 714.073L35.4346 716.597C34.5109 716.942 33.4923 716.934 32.5743 716.574L26.5394 714.207C25.0076 713.606 24 712.128 24 710.483V26Z" fill="white"/>
</g>
<defs>
<filter id="filter0_dd" x="0" y="0" width="376" height="746.73" filterUnits="userSpaceOnUse" color-interpolation-filters="sRGB">
<feFlood flood-opacity="0" result="BackgroundImageFix"/>
<feColorMatrix in="SourceAlpha" type="matrix" values="0 0 0 0 0 0 0 0 0 0 0 0 0 0 0 0 0 0 127 0"/>
<feOffset dy="2"/>
<feGaussianBlur stdDeviation="12"/>
<feColorMatrix type="matrix" values="0 0 0 0 0 0 0 0 0 0 0 0 0 0 0 0 0 0 0.08 0"/>
<feBlend mode="normal" in2="BackgroundImageFix" result="effect1_dropShadow"/>
<feColorMatrix in="SourceAlpha" type="matrix" values="0 0 0 0 0 0 0 0 0 0 0 0 0 0 0 0 0 0 127 0"/>
<feOffset/>
<feGaussianBlur stdDeviation="1"/>
<feColorMatrix type="matrix" values="0 0 0 0 0 0 0 0 0 0 0 0 0 0 0 0 0 0 0.08 0"/>
<feBlend mode="normal" in2="effect1_dropShadow" result="effect2_dropShadow"/>
<feBlend mode="normal" in="SourceGraphic" in2="effect2_dropShadow" result="shape"/>
</filter>
</defs>
</svg>
