<svg width="344" height="538" viewBox="0 0 344 538" fill="none" xmlns="http://www.w3.org/2000/svg">
<g filter="url(#filter0_dd)">
<path d="M8 8.00002C8 5.79088 9.79086 4 12 4H332C334.209 4 336 5.79086 336 8V510.024C336 511.451 335.24 512.77 334.006 513.485L327.957 516.99C326.743 517.694 325.248 517.709 324.019 517.031L318.281 513.865C316.653 512.966 314.619 513.308 313.375 514.691L308.047 520.613C306.432 522.408 303.607 522.374 302.036 520.541L297.964 515.789C296.393 513.955 293.568 513.921 291.953 515.716L287.547 520.613C285.932 522.408 283.107 522.374 281.536 520.541L277.464 515.789C275.893 513.955 273.068 513.921 271.453 515.716L267.047 520.613C265.432 522.408 262.607 522.374 261.036 520.541L257.116 515.966C255.493 514.072 252.551 514.109 250.977 516.044L247.382 520.46C245.855 522.335 243.027 522.438 241.369 520.678L236.631 515.651C234.973 513.892 232.145 513.995 230.618 515.87L226.882 520.46C225.355 522.335 222.527 522.438 220.869 520.678L216.131 515.651C214.473 513.892 211.645 513.995 210.118 515.87L206.382 520.46C204.855 522.335 202.027 522.438 200.369 520.678L195.631 515.651C193.973 513.892 191.145 513.995 189.618 515.87L185.882 520.46C184.355 522.335 181.527 522.438 179.869 520.678L175.131 515.651C173.473 513.892 170.645 513.995 169.118 515.87L165.382 520.46C163.855 522.335 161.027 522.438 159.369 520.678L154.631 515.651C152.973 513.892 150.145 513.995 148.618 515.87L144.882 520.46C143.355 522.335 140.527 522.438 138.869 520.678L134.131 515.651C132.473 513.892 129.645 513.995 128.118 515.87L124.382 520.46C122.855 522.335 120.027 522.438 118.369 520.678L113.631 515.651C111.973 513.892 109.145 513.995 107.618 515.87L103.882 520.46C102.355 522.335 99.5273 522.438 97.8689 520.678L92.9792 515.49C91.375 513.788 88.6591 513.82 87.0948 515.559L82.5469 520.613C80.932 522.408 78.1069 522.374 76.5359 520.541L72.4641 515.789C70.8931 513.955 68.068 513.921 66.4531 515.716L62.0469 520.613C60.432 522.408 57.6069 522.374 56.0359 520.541L51.9641 515.789C50.3931 513.955 47.568 513.921 45.9531 515.716L41.5469 520.613C39.932 522.408 37.1069 522.374 35.5359 520.541L30.619 514.802C29.385 513.362 27.3092 512.987 25.6488 513.903L19.9808 517.031C18.7517 517.709 17.2571 517.694 16.0425 516.99L9.99447 513.485C8.75998 512.77 8 511.451 8 510.024V8.00002Z" fill="white"/>
</g>
<defs>
<filter id="filter0_dd" x="0" y="0" width="344" height="537.938" filterUnits="userSpaceOnUse" color-interpolation-filters="sRGB">
<feFlood flood-opacity="0" result="BackgroundImageFix"/>
<feColorMatrix in="SourceAlpha" type="matrix" values="0 0 0 0 0 0 0 0 0 0 0 0 0 0 0 0 0 0 127 0"/>
<feOffset dy="8"/>
<feGaussianBlur stdDeviation="4"/>
<feColorMatrix type="matrix" values="0 0 0 0 0 0 0 0 0 0 0 0 0 0 0 0 0 0 0.16 0"/>
<feBlend mode="normal" in2="BackgroundImageFix" result="effect1_dropShadow"/>
<feColorMatrix in="SourceAlpha" type="matrix" values="0 0 0 0 0 0 0 0 0 0 0 0 0 0 0 0 0 0 127 0"/>
<feOffset/>
<feGaussianBlur stdDeviation="2"/>
<feColorMatrix type="matrix" values="0 0 0 0 0 0 0 0 0 0 0 0 0 0 0 0 0 0 0.08 0"/>
<feBlend mode="normal" in2="effect1_dropShadow" result="effect2_dropShadow"/>
<feBlend mode="normal" in="SourceGraphic" in2="effect2_dropShadow" result="shape"/>
</filter>
</defs>
</svg>
