<svg width="28" height="28" viewBox="0 0 28 28" fill="none" xmlns="http://www.w3.org/2000/svg">
<path d="M20.8973 11.7507C19.2931 11.8102 17.7728 12.4832 16.6501 13.6307C15.5274 14.7781 14.8878 16.3127 14.8633 17.9179C14.8388 19.5231 15.4311 21.0765 16.5182 22.2578C17.6054 23.439 19.1043 24.1581 20.706 24.2667C20.6059 24.8001 20.31 25.2768 19.8764 25.6031C19.4427 25.9295 18.9028 26.0819 18.3625 26.0304C17.8222 25.979 17.3207 25.7274 16.9565 25.325C16.5923 24.9227 16.3916 24.3987 16.394 23.856C16.3963 23.8405 16.3963 23.8248 16.394 23.8093C16.3963 23.7907 16.3963 23.7719 16.394 23.7533C16.3903 23.6168 16.3329 23.4872 16.2341 23.3928C16.1353 23.2984 16.0033 23.2468 15.8667 23.2493H4.48002V3.87801C4.48125 3.2736 4.72222 2.69436 5.15004 2.26741C5.57787 1.84046 6.1576 1.60068 6.76201 1.60068H21.5973C21.0481 2.1916 20.743 2.96858 20.7433 3.77535C20.7408 3.79236 20.7408 3.80966 20.7433 3.82668C20.7412 3.84373 20.7412 3.86097 20.7433 3.87801V11.7787C20.776 12.334 20.9533 12.2827 21.2427 12.2827C21.3098 12.2897 21.3776 12.2831 21.4421 12.2632C21.5065 12.2434 21.5663 12.2106 21.6177 12.167C21.6692 12.1234 21.7113 12.0698 21.7415 12.0095C21.7717 11.9492 21.7893 11.8833 21.7933 11.816V4.28868H26.6467C26.7841 4.28868 26.9158 4.2341 27.013 4.13696C27.1101 4.03982 27.1647 3.90806 27.1647 3.77068C27.1634 2.91954 26.8248 2.10361 26.2229 1.50176C25.6211 0.899909 24.8052 0.561247 23.954 0.560012C23.8467 0.560012 23.744 0.560012 23.6413 0.560012C23.5995 0.555191 23.5572 0.555191 23.5153 0.560012H6.76201C5.88321 0.561243 5.04069 0.910572 4.41884 1.53154C3.797 2.15251 3.44648 2.99455 3.44402 3.87335V23.2493H1.16668C1.0293 23.2493 0.897544 23.3039 0.8004 23.4011C0.703257 23.4982 0.648682 23.63 0.648682 23.7673C0.653609 24.6433 1.00472 25.4817 1.62542 26.0998C2.24613 26.7179 3.08606 27.0655 3.96201 27.0667H18.5687C19.3587 27.0659 20.1207 26.7743 20.7095 26.2475C21.2982 25.7208 21.6724 24.9957 21.7607 24.2107C23.3315 23.9905 24.7604 23.183 25.7593 21.9508C26.7581 20.7187 27.2527 19.1537 27.1432 17.5713C27.0336 15.9889 26.3282 14.5069 25.1691 13.4241C24.01 12.3414 22.4835 11.7383 20.8973 11.7367V11.7507ZM23.954 1.60068C24.4418 1.6024 24.915 1.76738 25.2982 2.06932C25.6813 2.37126 25.9523 2.79278 26.068 3.26668H21.84C21.9557 2.79278 22.2267 2.37126 22.6099 2.06932C22.993 1.76738 23.4662 1.6024 23.954 1.60068ZM3.96201 26.0447C3.4457 26.0435 2.94511 25.8669 2.54235 25.5438C2.13959 25.2208 1.85856 24.7704 1.74535 24.2667H15.4C15.4829 24.9246 15.7702 25.54 16.2213 26.026L3.96201 26.0447ZM20.8973 23.2447C19.8627 23.2438 18.8515 22.936 17.9918 22.3604C17.132 21.7849 16.4622 20.9672 16.0671 20.011C15.672 19.0547 15.5694 18.0028 15.7721 16.9882C15.9749 15.9736 16.4739 15.0419 17.2062 14.3109C17.9385 13.58 18.8711 13.0826 19.886 12.8816C20.901 12.6807 21.9527 12.7852 22.9083 13.182C23.8638 13.5788 24.6802 14.2501 25.2543 15.1109C25.8284 15.9717 26.1343 16.9834 26.1333 18.018C26.1321 19.4059 25.5799 20.7365 24.5981 21.7174C23.6163 22.6983 22.2852 23.2493 20.8973 23.2493V23.2447Z" fill="black"/>
<path d="M22.8668 15.5167C22.7738 15.4471 22.6581 15.4148 22.5424 15.426C22.4268 15.4372 22.3195 15.4912 22.2415 15.5773L18.8675 19.6793C18.7979 19.7724 18.7656 19.8881 18.7768 20.0037C18.7881 20.1194 18.842 20.2267 18.9282 20.3047C18.9872 20.3533 19.058 20.3855 19.1335 20.398C19.2108 20.4096 19.2898 20.4015 19.3632 20.3746C19.4365 20.3477 19.502 20.3028 19.5535 20.244L22.9275 16.142C22.9971 16.0489 23.0294 15.9332 23.0182 15.8176C23.0069 15.7019 22.953 15.5946 22.8668 15.5167Z" fill="black"/>
<path d="M22.7919 18.564C22.5289 18.564 22.2717 18.642 22.053 18.7881C21.8343 18.9343 21.6638 19.142 21.5632 19.385C21.4625 19.628 21.4362 19.8954 21.4875 20.1534C21.5388 20.4114 21.6655 20.6484 21.8515 20.8344C22.0375 21.0204 22.2744 21.1471 22.5324 21.1984C22.7904 21.2497 23.0579 21.2234 23.3009 21.1227C23.5439 21.0221 23.7516 20.8516 23.8978 20.6329C24.0439 20.4142 24.1219 20.157 24.1219 19.894C24.1207 19.5416 23.9802 19.204 23.731 18.9549C23.4819 18.7057 23.1443 18.5652 22.7919 18.564ZM22.7919 20.3373C22.6978 20.3419 22.6045 20.3179 22.5243 20.2684C22.444 20.219 22.3807 20.1464 22.3425 20.0602C22.3043 19.9741 22.2931 19.8784 22.3104 19.7857C22.3276 19.6931 22.3725 19.6078 22.4392 19.5412C22.5058 19.4746 22.591 19.4297 22.6837 19.4124C22.7763 19.3952 22.872 19.4064 22.9582 19.4445C23.0444 19.4827 23.1169 19.5461 23.1664 19.6263C23.2158 19.7065 23.2398 19.7998 23.2352 19.894C23.2352 20.0115 23.1885 20.1243 23.1054 20.2074C23.0223 20.2906 22.9095 20.3373 22.7919 20.3373Z" fill="black"/>
<path d="M19.2173 14.644C18.9537 14.6412 18.6952 14.7169 18.4746 14.8613C18.2541 15.0057 18.0814 15.2125 17.9786 15.4553C17.8758 15.698 17.8474 15.9659 17.8972 16.2248C17.9469 16.4837 18.0724 16.722 18.2579 16.9094C18.4433 17.0968 18.6803 17.2249 18.9386 17.2773C19.197 17.3298 19.4651 17.3043 19.709 17.204C19.9528 17.1038 20.1614 16.9333 20.3081 16.7143C20.4549 16.4953 20.5333 16.2376 20.5333 15.974C20.5345 15.6233 20.3967 15.2864 20.1501 15.0371C19.9034 14.7878 19.568 14.6465 19.2173 14.644ZM19.2173 16.4127C19.1306 16.4081 19.0471 16.3781 18.9772 16.3265C18.9073 16.2749 18.8542 16.2039 18.8243 16.1223C18.7945 16.0408 18.7892 15.9522 18.8093 15.8677C18.8293 15.7832 18.8737 15.7064 18.937 15.6469C19.0003 15.5874 19.0797 15.5478 19.1653 15.5331C19.2509 15.5183 19.3389 15.529 19.4185 15.5638C19.498 15.5987 19.5656 15.6561 19.6128 15.729C19.66 15.802 19.6848 15.8871 19.684 15.974C19.6834 16.0338 19.6708 16.0929 19.6468 16.1478C19.6227 16.2026 19.5879 16.252 19.5443 16.293C19.5007 16.334 19.4492 16.3657 19.393 16.3863C19.3368 16.4068 19.2771 16.4158 19.2173 16.4127Z" fill="black"/>
<path d="M18.6887 5.58951C18.6839 5.50734 18.663 5.42692 18.6271 5.35286C18.5912 5.2788 18.541 5.21255 18.4794 5.15793C18.4179 5.1033 18.3461 5.06136 18.2683 5.03452C18.1905 5.00768 18.1082 4.99646 18.026 5.00151H6.66267C6.58112 4.99581 6.49925 5.00627 6.42176 5.03229C6.34426 5.05832 6.27267 5.09939 6.2111 5.15316C6.14953 5.20693 6.09918 5.27233 6.06295 5.34561C6.02673 5.41889 6.00533 5.49861 6 5.58018C6.01195 5.7441 6.08843 5.89658 6.21266 6.00419C6.33688 6.1118 6.49872 6.16574 6.66267 6.15418H18.026C18.1882 6.16462 18.348 6.11151 18.4717 6.00611C18.5954 5.90071 18.6732 5.75129 18.6887 5.58951Z" fill="black"/>
<path d="M18.683 9.139C18.6698 8.97516 18.5932 8.82295 18.4694 8.71484C18.3456 8.60673 18.1844 8.55128 18.0203 8.56033H6.65697C6.57481 8.54988 6.49137 8.55704 6.41219 8.58133C6.33301 8.60563 6.25992 8.64651 6.19777 8.70126C6.13562 8.756 6.08584 8.82335 6.05174 8.89883C6.01764 8.9743 6 9.05618 6 9.139C6 9.22182 6.01764 9.30369 6.05174 9.37917C6.08584 9.45465 6.13562 9.522 6.19777 9.57674C6.25992 9.63148 6.33301 9.67236 6.41219 9.69666C6.49137 9.72096 6.57481 9.72812 6.65697 9.71766H18.0203C18.1847 9.72793 18.3465 9.67292 18.4706 9.56457C18.5947 9.45622 18.671 9.30329 18.683 9.139Z" fill="black"/>
<path d="M14.0163 12.7056C14.0043 12.5414 13.928 12.3884 13.8039 12.2801C13.6799 12.1717 13.518 12.1167 13.3536 12.127H6.65697C6.57481 12.1165 6.49137 12.1237 6.41219 12.148C6.33301 12.1723 6.25992 12.2132 6.19777 12.2679C6.13562 12.3226 6.08584 12.39 6.05174 12.4655C6.01764 12.541 6 12.6228 6 12.7056C6 12.7885 6.01764 12.8703 6.05174 12.9458C6.08584 13.0213 6.13562 13.0886 6.19777 13.1434C6.25992 13.1981 6.33301 13.239 6.41219 13.2633C6.49137 13.2876 6.57481 13.2948 6.65697 13.2843H13.3536C13.5178 13.2934 13.6789 13.2379 13.8027 13.1298C13.9265 13.0217 14.0032 12.8695 14.0163 12.7056Z" fill="black"/>
<path d="M12.6163 16.2723C12.6043 16.108 12.528 15.9551 12.4039 15.8467C12.2799 15.7384 12.118 15.6834 11.9536 15.6936H6.65697C6.57481 15.6832 6.49137 15.6903 6.41219 15.7146C6.33301 15.7389 6.25992 15.7798 6.19777 15.8346C6.13562 15.8893 6.08584 15.9567 6.05174 16.0321C6.01764 16.1076 6 16.1895 6 16.2723C6 16.3551 6.01764 16.437 6.05174 16.5125C6.08584 16.5879 6.13562 16.6553 6.19777 16.71C6.25992 16.7648 6.33301 16.8057 6.41219 16.83C6.49137 16.8543 6.57481 16.8614 6.65697 16.851H11.9536C12.1178 16.86 12.2789 16.8046 12.4027 16.6965C12.5265 16.5883 12.6032 16.4361 12.6163 16.2723Z" fill="black"/>
<path d="M12.6163 19.8389C12.611 19.7574 12.5896 19.6777 12.5534 19.6044C12.5171 19.5311 12.4668 19.4657 12.4052 19.4119C12.3436 19.3582 12.272 19.3171 12.1946 19.2911C12.1171 19.265 12.0352 19.2546 11.9536 19.2603H6.65697C6.57481 19.2498 6.49137 19.257 6.41219 19.2813C6.33301 19.3056 6.25992 19.3465 6.19777 19.4012C6.13562 19.456 6.08584 19.5233 6.05174 19.5988C6.01764 19.6743 6 19.7561 6 19.8389C6 19.9218 6.01764 20.0036 6.05174 20.0791C6.08584 20.1546 6.13562 20.2219 6.19777 20.2767C6.25992 20.3314 6.33301 20.3723 6.41219 20.3966C6.49137 20.4209 6.57481 20.4281 6.65697 20.4176H11.9536C12.118 20.4279 12.2799 20.3729 12.4039 20.2645C12.528 20.1562 12.6043 20.0032 12.6163 19.8389Z" fill="black"/>
</svg>
