<svg width="28" height="28" viewBox="0 0 28 28" fill="none" xmlns="http://www.w3.org/2000/svg">
<g clip-path="url(#clip0)">
<path d="M17.4695 7.75319C17.5458 7.64495 17.6065 7.52646 17.6493 7.40114C17.8414 7.43349 18.0246 7.50664 18.1859 7.61579C18.5106 7.83522 18.8914 7.9569 19.2831 7.96693C19.4068 7.96647 19.5301 7.95508 19.6518 7.9332C20.1643 7.8457 20.6211 7.55814 20.9215 7.13385C21.0823 6.88023 21.3426 6.70614 21.6381 6.65396C21.9339 6.60201 22.2378 6.67652 22.4755 6.85995C22.9032 7.15595 23.4307 7.26989 23.9423 7.17669L23.7798 6.25748C23.4843 6.30966 23.1803 6.23492 22.9426 6.05171C22.0512 5.44171 20.8358 5.65614 20.2066 6.53411C20.0458 6.78772 19.7855 6.96181 19.4898 7.01399C19.3551 7.04111 19.2159 7.03769 19.0823 7.00419C19.3585 6.93128 19.614 6.7957 19.8291 6.60793C20.2292 6.27593 20.481 5.79833 20.5291 5.28061C20.5416 4.98051 20.6799 4.69978 20.9103 4.50701C21.1393 4.31195 21.4405 4.22445 21.7381 4.26615C22.257 4.31332 22.7726 4.14743 23.1666 3.807L22.5653 3.09241C22.3326 3.2804 22.0344 3.36699 21.7372 3.33281C20.6603 3.25055 19.7147 4.04376 19.6087 5.11883C19.5964 5.41847 19.4583 5.6992 19.2286 5.89221C18.9987 6.08498 18.6984 6.17248 18.401 6.13283C18.1098 6.11027 17.817 6.14924 17.542 6.24768C17.4135 6.02482 17.2259 5.84162 17.0001 5.71834L19.0867 1.55022C19.1591 1.40506 19.1512 1.2328 19.0655 1.09494C18.9798 0.957307 18.8287 0.873908 18.6667 0.87482C18.3379 0.877782 18.0223 0.746303 17.7931 0.510917C16.9691 -0.248105 15.701 -0.248105 14.8773 0.510917C14.6458 0.744252 14.3307 0.875275 14.0021 0.875275C13.6733 0.875275 13.3583 0.744252 13.1268 0.510917C12.3022 -0.24765 11.0339 -0.24765 10.2092 0.510917C9.97909 0.746531 9.66258 0.87801 9.33331 0.87482C9.17153 0.87482 9.02114 0.958447 8.93614 1.09608C8.85092 1.23348 8.84317 1.40552 8.91564 1.55022L10.9997 5.71834C10.6465 5.90679 10.392 6.23879 10.302 6.6289C10.212 7.019 10.2951 7.42894 10.5303 7.75319C6.25142 8.90255 3.27435 12.7776 3.2666 17.2083V25.6083C3.26797 26.8965 4.31182 27.9401 5.59995 27.9417H22.4001C23.688 27.9401 24.7318 26.8965 24.7334 25.6083V17.2083C24.7255 12.7776 21.7484 8.90255 17.4695 7.75319ZM10.7921 1.23941C11.0239 1.00607 11.339 0.87482 11.668 0.87482C11.9968 0.87482 12.3122 1.00607 12.544 1.23941C13.3681 1.99774 14.6362 1.99774 15.4606 1.23941C15.6919 1.00607 16.0066 0.87482 16.3352 0.87482C16.6635 0.87482 16.9785 1.00607 17.2097 1.23941C17.4326 1.43605 17.6892 1.59123 17.9672 1.69719L16.0449 5.54152H11.9549L10.0333 1.69764C10.3115 1.59146 10.5686 1.43628 10.7921 1.23941ZM11.6667 7.4082C11.4087 7.4082 11.2 7.19925 11.2 6.94153C11.2 6.68381 11.4087 6.47486 11.6667 6.47486H16.3334C16.5911 6.47486 16.8 6.68381 16.8 6.94153C16.8 7.19925 16.5911 7.4082 16.3334 7.4082H11.6667ZM23.8001 25.6083C23.8001 26.3815 23.1732 27.0083 22.4001 27.0083H5.59995C4.82657 27.0083 4.19994 26.3815 4.19994 25.6083V17.2083C4.20518 12.3135 8.17188 8.34701 13.0667 8.34154H14.9334C19.8279 8.34701 23.7946 12.3135 23.8001 17.2083V25.6083Z" fill="black"/>
<path d="M10.8699 20.6115L16.4702 15.0115L17.1301 15.6714L11.53 21.2716L10.8699 20.6115Z" fill="black"/>
<path d="M15.8666 18.6083C15.0932 18.6083 14.4666 19.2351 14.4666 20.0083C14.4666 20.7814 15.0932 21.4083 15.8666 21.4083C16.6397 21.4083 17.2666 20.7814 17.2666 20.0083C17.2666 19.2351 16.6397 18.6083 15.8666 18.6083ZM15.8666 20.475C15.6086 20.475 15.3999 20.266 15.3999 20.0083C15.3999 19.7506 15.6086 19.5416 15.8666 19.5416C16.1243 19.5416 16.3332 19.7506 16.3332 20.0083C16.3332 20.266 16.1243 20.475 15.8666 20.475Z" fill="black"/>
<path d="M12.1332 17.6749C12.9063 17.6749 13.5332 17.048 13.5332 16.2749C13.5332 15.5017 12.9063 14.8749 12.1332 14.8749C11.3598 14.8749 10.7332 15.5017 10.7332 16.2749C10.7332 17.048 11.3598 17.6749 12.1332 17.6749ZM12.1332 15.8082C12.3909 15.8082 12.5998 16.0172 12.5998 16.2749C12.5998 16.5326 12.3909 16.7416 12.1332 16.7416C11.8752 16.7416 11.6665 16.5326 11.6665 16.2749C11.6665 16.0172 11.8752 15.8082 12.1332 15.8082Z" fill="black"/>
<path d="M13.9999 11.6083C10.3914 11.6083 7.46655 14.5334 7.46655 18.1417C7.46655 21.7499 10.3914 24.675 13.9999 24.675C17.6082 24.675 20.5333 21.7499 20.5333 18.1417C20.5295 14.535 17.6066 11.6122 13.9999 11.6083ZM13.9999 23.7417C10.9071 23.7417 8.39989 21.2345 8.39989 18.1417C8.39989 15.0488 10.9071 12.5416 13.9999 12.5416C17.0925 12.5416 19.6 15.0488 19.6 18.1417C19.5966 21.2331 17.0912 23.7383 13.9999 23.7417Z" fill="black"/>
</g>
<defs>
<clipPath id="clip0">
<rect width="28" height="28" fill="white"/>
</clipPath>
</defs>
</svg>
