<svg width="28" height="28" viewBox="0 0 28 28" fill="none" xmlns="http://www.w3.org/2000/svg">
<path d="M7.99631 18.2535L5.17996 15.4373C4.6281 14.8866 3.8966 14.5833 3.11731 14.5833H1.1666C0.844604 14.5833 0.583252 14.8446 0.583252 15.1666C0.583252 15.4886 0.844604 15.7499 1.1666 15.7499H3.11725C3.5769 15.7499 4.0284 15.9365 4.3539 16.262L6.17505 18.0832H1.1666C0.844604 18.0832 0.583252 18.3445 0.583252 18.6665C0.583252 18.9885 0.844604 19.2499 1.1666 19.2499H7.58325C7.8189 19.2499 8.03125 19.1075 8.12225 18.8894C8.21325 18.6713 8.1631 18.4204 7.99631 18.2535Z" fill="black"/>
<path d="M7.58345 21.0001C7.26145 21.0001 7.00009 21.2615 7.00009 21.5835V23.3335C7.00009 23.6555 6.73759 23.9168 6.41674 23.9168H2.91675C2.5959 23.9168 2.3334 23.6555 2.3334 23.3335V21.0001C2.3334 20.6781 2.07204 20.4167 1.75004 20.4167C1.42804 20.4167 1.16675 20.6781 1.16675 21.0001V23.3335C1.16675 24.2983 1.9519 25.0835 2.91675 25.0835H6.41674C7.38159 25.0835 8.16674 24.2983 8.16674 23.3335V21.5835C8.16674 21.2615 7.90544 21.0001 7.58345 21.0001Z" fill="black"/>
<path d="M25.3529 11.1499C23.7452 10.3087 20.1367 9.91675 14 9.91675C7.8633 9.91675 4.25485 10.3087 2.64715 11.1499C0.8155 12.1065 0 13.7049 0 16.3334C0 18.8604 0.578648 21.0584 0.603148 21.1506C0.670797 21.4061 0.901797 21.5834 1.16665 21.5834H6.279L8.48865 22.6883C8.5703 22.7291 8.66015 22.7501 8.75 22.7501H19.25C19.3399 22.7501 19.4296 22.7291 19.5101 22.6883L21.721 21.5834H26.8334C27.0982 21.5834 27.3292 21.4061 27.3969 21.1506C27.4214 21.0584 28 18.8604 28 16.3334C28 13.7049 27.1845 12.1065 25.3529 11.1499ZM26.3725 20.4167H21.5845C21.4935 20.4167 21.4036 20.4377 21.3231 20.4786L19.1123 21.5834H8.88765L6.678 20.4786C6.59635 20.4377 6.5065 20.4167 6.41665 20.4167H1.62865C1.4665 19.6736 1.16665 18.0682 1.16665 16.3333C1.16665 14.1365 1.7523 12.9337 3.18615 12.1835C4.5838 11.4531 8.2215 11.0833 14 11.0833C19.7785 11.0833 23.4161 11.4532 24.8139 12.1835C26.2477 12.9336 26.8334 14.1365 26.8334 16.3333C26.8334 18.0682 26.5335 19.6736 26.3725 20.4167Z" fill="black"/>
<path d="M26.8332 18.0833H21.8247L23.6447 16.2621C23.9714 15.9366 24.4217 15.75 24.8826 15.75H26.8332C27.1552 15.75 27.4166 15.4886 27.4166 15.1666C27.4166 14.8446 27.1552 14.5833 26.8332 14.5833H24.8826C24.1032 14.5833 23.3717 14.8866 22.8199 15.4373L20.0036 18.2536C19.8379 18.4205 19.7877 18.6713 19.8776 18.8895C19.9674 19.1077 20.1809 19.25 20.4166 19.25H26.8332C27.1552 19.25 27.4166 18.9886 27.4166 18.6666C27.4165 18.3445 27.1552 18.0833 26.8332 18.0833Z" fill="black"/>
<path d="M20.9451 14.9193C20.8483 14.7139 20.643 14.5833 20.4166 14.5833H7.58332C7.35697 14.5833 7.15167 14.7139 7.05482 14.9193C6.95917 15.1234 6.98947 15.3661 7.13532 15.5399L10.052 19.0399C10.1628 19.1729 10.3273 19.2499 10.5 19.2499H17.5C17.6726 19.2499 17.8371 19.1729 17.948 19.0399L20.8646 15.5399C21.0105 15.366 21.0408 15.1234 20.9451 14.9193ZM17.2258 18.0833H10.773L8.82811 15.7499H19.1706L17.2258 18.0833Z" fill="black"/>
<path d="M25.6189 11.4345C24.9551 9.90848 22.7338 4.87898 21.9614 4.22213C20.9989 3.40427 18.2421 2.91663 14.5834 2.91663H13.4168C9.75812 2.91663 7.00127 3.40427 6.03877 4.22098C5.26642 4.87783 3.04392 9.90733 2.38127 11.4333C2.25412 11.7297 2.38942 12.0727 2.68462 12.201C2.97862 12.3293 3.32397 12.1951 3.45227 11.8988C4.76942 8.86668 6.38062 5.49733 6.79477 5.11118C7.24392 4.72968 9.14442 4.08333 13.4168 4.08333H14.5834C18.8558 4.08333 20.7563 4.72968 21.2031 5.10883C21.6196 5.49733 23.2307 8.86548 24.5479 11.8988C24.6436 12.1193 24.8594 12.25 25.0834 12.25C25.1604 12.25 25.2409 12.2348 25.3156 12.2021C25.6107 12.0738 25.7461 11.7296 25.6189 11.4345Z" fill="black"/>
<path d="M26.25 20.4167C25.928 20.4167 25.6667 20.6781 25.6667 21.0001V23.3335C25.6667 23.6555 25.4042 23.9168 25.0833 23.9168H21.5833C21.2625 23.9168 21 23.6555 21 23.3335V21.5835C21 21.2615 20.7386 21.0001 20.4166 21.0001C20.0946 21.0001 19.8333 21.2615 19.8333 21.5835V23.3335C19.8333 24.2983 20.6184 25.0835 21.5833 25.0835H25.0833C26.0481 25.0835 26.8333 24.2983 26.8333 23.3335V21.0001C26.8334 20.6781 26.572 20.4167 26.25 20.4167Z" fill="black"/>
</svg>
