<svg width="28" height="28" viewBox="0 0 28 28" fill="none" xmlns="http://www.w3.org/2000/svg">
<path d="M16.894 7.81153C16.9687 7.70329 17.028 7.5848 17.0699 7.45948C17.2578 7.49183 17.4371 7.56498 17.5949 7.67413C17.9125 7.89356 18.285 8.01524 18.6682 8.02527C18.7892 8.02481 18.9098 8.01342 19.0289 7.99154C19.5302 7.90404 19.9771 7.61648 20.2709 7.19219C20.4283 6.93858 20.6829 6.76449 20.972 6.71231C21.2613 6.66035 21.5587 6.73486 21.7912 6.9183C22.2096 7.21429 22.7256 7.32823 23.2261 7.23503L23.0671 6.31582C22.778 6.368 22.4806 6.29326 22.2481 6.11006C21.3761 5.50006 20.1871 5.71448 19.5716 6.59245C19.4143 6.84606 19.1597 7.02015 18.8704 7.07233C18.7386 7.09945 18.6024 7.09603 18.4718 7.06254C18.742 6.98962 18.9919 6.85404 19.2023 6.66628C19.5937 6.33428 19.84 5.85667 19.8871 5.33896C19.8993 5.03886 20.0346 4.75813 20.26 4.56535C20.484 4.3703 20.7787 4.2828 21.0698 4.3245C21.5774 4.37167 22.0819 4.20578 22.4673 3.86535L21.879 3.15076C21.6514 3.33875 21.3596 3.42534 21.0689 3.39116C20.0155 3.3089 19.0904 4.1021 18.9867 5.17717C18.9747 5.47682 18.8396 5.75755 18.6149 5.95055C18.39 6.14332 18.0962 6.23082 17.8053 6.19118C17.5204 6.16862 17.234 6.20758 16.9649 6.30602C16.8392 6.08317 16.6558 5.89996 16.4348 5.77669L18.476 1.60856C18.5469 1.46341 18.5391 1.29115 18.4553 1.15329C18.3715 1.01566 18.2237 0.932257 18.0652 0.933168C17.7436 0.93613 17.4348 0.804652 17.2106 0.569266C16.4045 -0.189755 15.164 -0.189755 14.3582 0.569266C14.1317 0.802601 13.8234 0.933624 13.502 0.933624C13.1803 0.933624 12.8723 0.802601 12.6458 0.569266C11.8391 -0.1893 10.5984 -0.1893 9.79165 0.569266C9.56651 0.80488 9.25689 0.936358 8.93478 0.933168C8.77652 0.933168 8.62939 1.0168 8.54625 1.15443C8.46288 1.29183 8.4553 1.46387 8.52619 1.60856L10.5649 5.77669C10.2194 5.96513 9.97043 6.29713 9.88238 6.68724C9.79433 7.07735 9.87569 7.48728 10.1057 7.81153C5.91991 8.96089 3.00758 12.836 3 17.2666V25.6667C3.00134 26.9548 4.02249 27.9984 5.28261 28H21.7174C22.9773 27.9984 23.9984 26.9548 24 25.6667V17.2666C23.9922 12.836 21.0799 8.96089 16.894 7.81153ZM10.3619 1.29775C10.5886 1.06442 10.8968 0.933168 11.2187 0.933168C11.5404 0.933168 11.8489 1.06442 12.0756 1.29775C12.8819 2.05609 14.1224 2.05609 14.9289 1.29775C15.1551 1.06442 15.463 0.933168 15.7844 0.933168C16.1056 0.933168 16.4137 1.06442 16.6399 1.29775C16.8579 1.4944 17.1089 1.64958 17.3809 1.75554L15.5004 5.59986H11.4994L9.61957 1.75599C9.89174 1.64981 10.1432 1.49463 10.3619 1.29775ZM11.2174 7.46654C10.9651 7.46654 10.7609 7.25759 10.7609 6.99987C10.7609 6.74216 10.9651 6.5332 11.2174 6.5332H15.7826C16.0347 6.5332 16.2391 6.74216 16.2391 6.99987C16.2391 7.25759 16.0347 7.46654 15.7826 7.46654H11.2174ZM23.087 25.6667C23.087 26.4398 22.4737 27.0667 21.7174 27.0667H5.28261C4.52605 27.0667 3.91304 26.4398 3.91304 25.6667V17.2666C3.91817 12.3718 7.79861 8.40535 12.587 8.39988H14.413C19.2012 8.40535 23.0816 12.3718 23.087 17.2666V25.6667Z" fill="black"/>
<path d="M10.7334 20.9416C10.5511 20.7593 10.5511 20.4637 10.7334 20.2814L15.6736 15.3414C15.8559 15.1592 16.1513 15.1592 16.3336 15.3414C16.5158 15.5237 16.5158 15.8191 16.3336 16.0013L11.3935 20.9416C11.2112 21.1239 10.9157 21.1239 10.7334 20.9416Z" fill="black"/>
<path d="M15.4 18.6083C14.6266 18.6083 14 19.2351 14 20.0083C14 20.7814 14.6266 21.4083 15.4 21.4083C16.1732 21.4083 16.8 20.7814 16.8 20.0083C16.8 19.2351 16.1732 18.6083 15.4 18.6083ZM15.4 20.475C15.1421 20.475 14.9333 20.266 14.9333 20.0083C14.9333 19.7506 15.1421 19.5416 15.4 19.5416C15.6577 19.5416 15.8667 19.7506 15.8667 20.0083C15.8667 20.266 15.6577 20.475 15.4 20.475Z" fill="black"/>
<path d="M11.6666 17.6749C12.4398 17.6749 13.0666 17.048 13.0666 16.2749C13.0666 15.5017 12.4398 14.8749 11.6666 14.8749C10.8932 14.8749 10.2666 15.5017 10.2666 16.2749C10.2666 17.048 10.8932 17.6749 11.6666 17.6749ZM11.6666 15.8082C11.9243 15.8082 12.1333 16.0172 12.1333 16.2749C12.1333 16.5326 11.9243 16.7416 11.6666 16.7416C11.4087 16.7416 11.1999 16.5326 11.1999 16.2749C11.1999 16.0172 11.4087 15.8082 11.6666 15.8082Z" fill="black"/>
<path d="M13.5334 11.6083C9.9249 11.6083 7 14.5334 7 18.1417C7 21.7499 9.9249 24.675 13.5334 24.675C17.1417 24.675 20.0668 21.7499 20.0668 18.1417C20.0629 14.535 17.1401 11.6122 13.5334 11.6083ZM13.5334 23.7417C10.4406 23.7417 7.93334 21.2345 7.93334 18.1417C7.93334 15.0488 10.4406 12.5416 13.5334 12.5416C16.626 12.5416 19.1334 15.0488 19.1334 18.1417C19.13 21.2331 16.6246 23.7383 13.5334 23.7417Z" fill="black"/>
</svg>
