<svg width="311" height="194" viewBox="0 0 311 194" fill="none" xmlns="http://www.w3.org/2000/svg">
<rect y="20" width="39.1395" height="30" rx="3" fill="#F5F5F5"/>
<rect x="45.4865" y="20" width="39.1395" height="30" rx="3" fill="#EBEDF0"/>
<rect x="90.9728" y="20" width="39.1395" height="30" rx="3" fill="#EBEDF0"/>
<rect x="271.861" y="20" width="39.1395" height="30" rx="3" fill="#EBEDF0"/>
<rect x="136.459" y="20" width="38.0816" height="30" rx="3" fill="#EBEDF0"/>
<rect x="180.888" y="20" width="39.1395" height="30" rx="3" fill="#EBEDF0"/>
<rect x="226.374" y="20" width="39.1395" height="30" rx="3" fill="#EBEDF0"/>
<rect y="56" width="39.1395" height="30" rx="3" fill="#EBEDF0"/>
<rect x="45.4865" y="56" width="39.1395" height="30" rx="3" fill="#EBEDF0"/>
<rect x="90.9728" y="56" width="39.1395" height="30" rx="3" fill="#EBEDF0"/>
<rect x="271.861" y="56" width="39.1395" height="30" rx="3" fill="#EBEDF0"/>
<rect x="136.459" y="56" width="38.0816" height="30" rx="3" fill="#EBEDF0"/>
<rect x="180.888" y="56" width="39.1395" height="30" rx="3" fill="#EBEDF0"/>
<rect x="226.374" y="56" width="39.1395" height="30" rx="3" fill="#EBEDF0"/>
<rect y="92" width="39.1395" height="30" rx="3" fill="#EBEDF0"/>
<rect x="45.4865" y="92" width="39.1395" height="30" rx="3" fill="#EBEDF0"/>
<rect x="90.9728" y="92" width="39.1395" height="30" rx="3" fill="#EBEDF0"/>
<rect x="271.861" y="92" width="39.1395" height="30" rx="3" fill="#EBEDF0"/>
<rect x="136.459" y="92" width="38.0816" height="30" rx="3" fill="#EBEDF0"/>
<rect x="180.888" y="92" width="39.1395" height="30" rx="3" fill="#EBEDF0"/>
<rect x="226.374" y="92" width="39.1395" height="30" rx="3" fill="#EBEDF0"/>
<rect y="128" width="39.1395" height="30" rx="3" fill="#EBEDF0"/>
<rect x="45.4865" y="128" width="39.1395" height="30" rx="3" fill="#EBEDF0"/>
<rect x="90.9728" y="128" width="39.1395" height="30" rx="3" fill="#EBEDF0"/>
<rect x="271.861" y="128" width="39.1395" height="30" rx="3" fill="#EBEDF0"/>
<rect x="136.459" y="128" width="38.0816" height="30" rx="3" fill="#EBEDF0"/>
<rect x="180.888" y="128" width="39.1395" height="30" rx="3" fill="#EBEDF0"/>
<rect x="226.374" y="128" width="39.1395" height="30" rx="3" fill="#EBEDF0"/>
<rect y="164" width="39.1395" height="30" rx="3" fill="#EBEDF0"/>
<rect x="45.4865" y="164" width="39.1395" height="30" rx="3" fill="#EBEDF0"/>
<rect x="90.9728" y="164" width="39.1395" height="30" rx="3" fill="#EBEDF0"/>
<rect x="271.861" y="164" width="39.1395" height="30" rx="3" fill="#F5F5F5"/>
<rect x="136.459" y="164" width="38.0816" height="30" rx="3" fill="#EBEDF0"/>
<rect x="180.888" y="164" width="39.1395" height="30" rx="3" fill="#F5F5F5"/>
<rect x="226.374" y="164" width="39.1395" height="30" rx="3" fill="#F5F5F5"/>
<path d="M22.2852 29.207H23.0996C23.6113 29.1992 24.0137 29.0645 24.3066 28.8027C24.5996 28.541 24.7461 28.1875 24.7461 27.7422C24.7461 26.7422 24.248 26.2422 23.252 26.2422C22.7832 26.2422 22.4082 26.377 22.127 26.6465C21.8496 26.9121 21.7109 27.2656 21.7109 27.707H20.627C20.627 27.0312 20.873 26.4707 21.3652 26.0254C21.8613 25.5762 22.4902 25.3516 23.252 25.3516C24.0566 25.3516 24.6875 25.5645 25.1445 25.9902C25.6016 26.416 25.8301 27.0078 25.8301 27.7656C25.8301 28.1367 25.709 28.4961 25.4668 28.8438C25.2285 29.1914 24.9023 29.4512 24.4883 29.623C24.957 29.7715 25.3184 30.0176 25.5723 30.3613C25.8301 30.7051 25.959 31.125 25.959 31.6211C25.959 32.3867 25.709 32.9941 25.209 33.4434C24.709 33.8926 24.0586 34.1172 23.2578 34.1172C22.457 34.1172 21.8047 33.9004 21.3008 33.4668C20.8008 33.0332 20.5508 32.4609 20.5508 31.75H21.6406C21.6406 32.1992 21.7871 32.5586 22.0801 32.8281C22.373 33.0977 22.7656 33.2324 23.2578 33.2324C23.7812 33.2324 24.1816 33.0957 24.459 32.8223C24.7363 32.5488 24.875 32.1562 24.875 31.6445C24.875 31.1484 24.7227 30.7676 24.418 30.502C24.1133 30.2363 23.6738 30.0996 23.0996 30.0918H22.2852V29.207ZM32.8969 30.3613C32.8969 31.6309 32.6801 32.5742 32.2465 33.1914C31.8129 33.8086 31.1352 34.1172 30.2133 34.1172C29.3031 34.1172 28.6293 33.8164 28.1918 33.2148C27.7543 32.6094 27.5277 31.707 27.5121 30.5078V29.0605C27.5121 27.8066 27.7289 26.875 28.1625 26.2656C28.5961 25.6562 29.2758 25.3516 30.2016 25.3516C31.1195 25.3516 31.7953 25.6465 32.2289 26.2363C32.6625 26.8223 32.8852 27.7285 32.8969 28.9551V30.3613ZM31.8129 28.8789C31.8129 27.9609 31.684 27.293 31.4262 26.875C31.1684 26.4531 30.7602 26.2422 30.2016 26.2422C29.6469 26.2422 29.2426 26.4512 28.9887 26.8691C28.7348 27.2871 28.6039 27.9297 28.5961 28.7969V30.5312C28.5961 31.4531 28.7289 32.1348 28.9945 32.5762C29.2641 33.0137 29.6703 33.2324 30.2133 33.2324C30.7484 33.2324 31.1449 33.0254 31.4027 32.6113C31.6645 32.1973 31.8012 31.5449 31.8129 30.6543V28.8789Z" fill="#6D7885"/>
<path d="M77.2715 34H76.1816V26.7754L73.9961 27.5781V26.5938L77.1016 25.4277H77.2715V34Z" fill="#2C2D2E"/>
<path d="M124.299 34H118.709V33.2207L121.662 29.9395C122.1 29.4434 122.4 29.041 122.564 28.7324C122.732 28.4199 122.816 28.0977 122.816 27.7656C122.816 27.3203 122.682 26.9551 122.412 26.6699C122.143 26.3848 121.783 26.2422 121.334 26.2422C120.795 26.2422 120.375 26.3965 120.074 26.7051C119.777 27.0098 119.629 27.4355 119.629 27.9824H118.545C118.545 27.1973 118.797 26.5625 119.301 26.0781C119.809 25.5938 120.486 25.3516 121.334 25.3516C122.127 25.3516 122.754 25.5605 123.215 25.9785C123.676 26.3926 123.906 26.9453 123.906 27.6367C123.906 28.4766 123.371 29.4766 122.301 30.6367L120.016 33.1152H124.299V34Z" fill="#2C2D2E"/>
<path d="M166.285 29.207H167.1C167.611 29.1992 168.014 29.0645 168.307 28.8027C168.6 28.541 168.746 28.1875 168.746 27.7422C168.746 26.7422 168.248 26.2422 167.252 26.2422C166.783 26.2422 166.408 26.377 166.127 26.6465C165.85 26.9121 165.711 27.2656 165.711 27.707H164.627C164.627 27.0312 164.873 26.4707 165.365 26.0254C165.861 25.5762 166.49 25.3516 167.252 25.3516C168.057 25.3516 168.688 25.5645 169.145 25.9902C169.602 26.416 169.83 27.0078 169.83 27.7656C169.83 28.1367 169.709 28.4961 169.467 28.8438C169.229 29.1914 168.902 29.4512 168.488 29.623C168.957 29.7715 169.318 30.0176 169.572 30.3613C169.83 30.7051 169.959 31.125 169.959 31.6211C169.959 32.3867 169.709 32.9941 169.209 33.4434C168.709 33.8926 168.059 34.1172 167.258 34.1172C166.457 34.1172 165.805 33.9004 165.301 33.4668C164.801 33.0332 164.551 32.4609 164.551 31.75H165.641C165.641 32.1992 165.787 32.5586 166.08 32.8281C166.373 33.0977 166.766 33.2324 167.258 33.2324C167.781 33.2324 168.182 33.0957 168.459 32.8223C168.736 32.5488 168.875 32.1562 168.875 31.6445C168.875 31.1484 168.723 30.7676 168.418 30.502C168.113 30.2363 167.674 30.0996 167.1 30.0918H166.285V29.207Z" fill="#2C2D2E"/>
<path d="M212.285 31.1348H213.469V32.0195H212.285V34H211.195V32.0195H207.311V31.3809L211.131 25.4688H212.285V31.1348ZM208.541 31.1348H211.195V26.9512L211.066 27.1855L208.541 31.1348Z" fill="#2C2D2E"/>
<path d="M254.207 29.7227L254.641 25.4688H259.012V26.4707H255.561L255.303 28.7969C255.721 28.5508 256.195 28.4277 256.727 28.4277C257.504 28.4277 258.121 28.6855 258.578 29.2012C259.035 29.7129 259.264 30.4062 259.264 31.2812C259.264 32.1602 259.025 32.8535 258.549 33.3613C258.076 33.8652 257.414 34.1172 256.562 34.1172C255.809 34.1172 255.193 33.9082 254.717 33.4902C254.24 33.0723 253.969 32.4941 253.902 31.7559H254.928C254.994 32.2441 255.168 32.6133 255.449 32.8633C255.73 33.1094 256.102 33.2324 256.562 33.2324C257.066 33.2324 257.461 33.0605 257.746 32.7168C258.035 32.373 258.18 31.8984 258.18 31.293C258.18 30.7227 258.023 30.2656 257.711 29.9219C257.402 29.5742 256.99 29.4004 256.475 29.4004C256.002 29.4004 255.631 29.5039 255.361 29.7109L255.074 29.9453L254.207 29.7227Z" fill="#2C2D2E"/>
<path d="M303.963 25.4629V26.3828H303.764C302.92 26.3984 302.248 26.6484 301.748 27.1328C301.248 27.6172 300.959 28.2988 300.881 29.1777C301.33 28.6621 301.943 28.4043 302.721 28.4043C303.463 28.4043 304.055 28.666 304.496 29.1895C304.941 29.7129 305.164 30.3887 305.164 31.2168C305.164 32.0957 304.924 32.7988 304.443 33.3262C303.967 33.8535 303.326 34.1172 302.521 34.1172C301.705 34.1172 301.043 33.8047 300.535 33.1797C300.027 32.5508 299.773 31.7422 299.773 30.7539V30.3379C299.773 28.7676 300.107 27.5684 300.775 26.7402C301.447 25.9082 302.445 25.4824 303.77 25.4629H303.963ZM302.539 29.3066C302.168 29.3066 301.826 29.418 301.514 29.6406C301.201 29.8633 300.984 30.1426 300.863 30.4785V30.877C300.863 31.5801 301.021 32.1465 301.338 32.5762C301.654 33.0059 302.049 33.2207 302.521 33.2207C303.01 33.2207 303.393 33.041 303.67 32.6816C303.951 32.3223 304.092 31.8516 304.092 31.2695C304.092 30.6836 303.949 30.2109 303.664 29.8516C303.383 29.4883 303.008 29.3066 302.539 29.3066Z" fill="#2C2D2E"/>
<path d="M34.2168 62.0781L30.6836 70H29.5469L33.0684 62.3594H28.4512V61.4688H34.2168V62.0781Z" fill="#2C2D2E"/>
<path d="M78.8828 63.6953C78.8828 64.1211 78.7695 64.5 78.543 64.832C78.3203 65.1641 78.0176 65.4238 77.6348 65.6113C78.0801 65.8027 78.4316 66.082 78.6895 66.4492C78.9512 66.8164 79.082 67.2324 79.082 67.6973C79.082 68.4355 78.832 69.0234 78.332 69.4609C77.8359 69.8984 77.1816 70.1172 76.3691 70.1172C75.5488 70.1172 74.8906 69.8984 74.3945 69.4609C73.9023 69.0195 73.6562 68.4316 73.6562 67.6973C73.6562 67.2363 73.7812 66.8203 74.0312 66.4492C74.2852 66.0781 74.6348 65.7969 75.0801 65.6055C74.7012 65.418 74.4023 65.1582 74.1836 64.8262C73.9648 64.4941 73.8555 64.1172 73.8555 63.6953C73.8555 62.9766 74.0859 62.4062 74.5469 61.9844C75.0078 61.5625 75.6152 61.3516 76.3691 61.3516C77.1191 61.3516 77.7246 61.5625 78.1855 61.9844C78.6504 62.4062 78.8828 62.9766 78.8828 63.6953ZM77.998 67.6738C77.998 67.1973 77.8457 66.8086 77.541 66.5078C77.2402 66.207 76.8457 66.0566 76.3574 66.0566C75.8691 66.0566 75.4766 66.2051 75.1797 66.502C74.8867 66.7988 74.7402 67.1895 74.7402 67.6738C74.7402 68.1582 74.8828 68.5391 75.168 68.8164C75.457 69.0938 75.8574 69.2324 76.3691 69.2324C76.877 69.2324 77.2754 69.0938 77.5645 68.8164C77.8535 68.5352 77.998 68.1543 77.998 67.6738ZM76.3691 62.2422C75.9434 62.2422 75.5977 62.375 75.332 62.6406C75.0703 62.9023 74.9395 63.2598 74.9395 63.7129C74.9395 64.1465 75.0684 64.498 75.3262 64.7676C75.5879 65.0332 75.9355 65.166 76.3691 65.166C76.8027 65.166 77.1484 65.0332 77.4062 64.7676C77.668 64.498 77.7988 64.1465 77.7988 63.7129C77.7988 63.2793 77.6641 62.9258 77.3945 62.6523C77.125 62.3789 76.7832 62.2422 76.3691 62.2422Z" fill="#2C2D2E"/>
<path d="M122.863 66.25C122.637 66.5195 122.365 66.7363 122.049 66.9004C121.736 67.0645 121.393 67.1465 121.018 67.1465C120.525 67.1465 120.096 67.0254 119.729 66.7832C119.365 66.541 119.084 66.2012 118.885 65.7637C118.686 65.3223 118.586 64.8359 118.586 64.3047C118.586 63.7344 118.693 63.2207 118.908 62.7637C119.127 62.3066 119.436 61.957 119.834 61.7148C120.232 61.4727 120.697 61.3516 121.229 61.3516C122.072 61.3516 122.736 61.668 123.221 62.3008C123.709 62.9297 123.953 63.7891 123.953 64.8789V65.1953C123.953 66.8555 123.625 68.0684 122.969 68.834C122.312 69.5957 121.322 69.9863 119.998 70.0059H119.787V69.0918H120.016C120.91 69.0762 121.598 68.8438 122.078 68.3945C122.559 67.9414 122.82 67.2266 122.863 66.25ZM121.193 66.25C121.557 66.25 121.891 66.1387 122.195 65.916C122.504 65.6934 122.729 65.418 122.869 65.0898V64.6562C122.869 63.9453 122.715 63.3672 122.406 62.9219C122.098 62.4766 121.707 62.2539 121.234 62.2539C120.758 62.2539 120.375 62.4375 120.086 62.8047C119.797 63.168 119.652 63.6484 119.652 64.2461C119.652 64.8281 119.791 65.3086 120.068 65.6875C120.35 66.0625 120.725 66.25 121.193 66.25Z" fill="#2C2D2E"/>
<path d="M161.271 70H160.182V62.7754L157.996 63.5781V62.5938L161.102 61.4277H161.271V70ZM169.897 66.3613C169.897 67.6309 169.68 68.5742 169.246 69.1914C168.813 69.8086 168.135 70.1172 167.213 70.1172C166.303 70.1172 165.629 69.8164 165.192 69.2148C164.754 68.6094 164.528 67.707 164.512 66.5078V65.0605C164.512 63.8066 164.729 62.875 165.162 62.2656C165.596 61.6562 166.276 61.3516 167.202 61.3516C168.12 61.3516 168.795 61.6465 169.229 62.2363C169.662 62.8223 169.885 63.7285 169.897 64.9551V66.3613ZM168.813 64.8789C168.813 63.9609 168.684 63.293 168.426 62.875C168.168 62.4531 167.76 62.2422 167.202 62.2422C166.647 62.2422 166.243 62.4512 165.989 62.8691C165.735 63.2871 165.604 63.9297 165.596 64.7969V66.5312C165.596 67.4531 165.729 68.1348 165.995 68.5762C166.264 69.0137 166.67 69.2324 167.213 69.2324C167.748 69.2324 168.145 69.0254 168.403 68.6113C168.664 68.1973 168.801 67.5449 168.813 66.6543V64.8789Z" fill="#2C2D2E"/>
<path d="M204.271 70H203.182V62.7754L200.996 63.5781V62.5938L204.102 61.4277H204.271V70ZM211.11 70H210.02V62.7754L207.834 63.5781V62.5938L210.94 61.4277H211.11V70Z" fill="#2C2D2E"/>
<path d="M250.271 70H249.182V62.7754L246.996 63.5781V62.5938L250.102 61.4277H250.271V70ZM259.137 70H253.547V69.2207L256.5 65.9395C256.938 65.4434 257.239 65.041 257.403 64.7324C257.571 64.4199 257.655 64.0977 257.655 63.7656C257.655 63.3203 257.52 62.9551 257.25 62.6699C256.981 62.3848 256.621 62.2422 256.172 62.2422C255.633 62.2422 255.213 62.3965 254.912 62.7051C254.616 63.0098 254.467 63.4355 254.467 63.9824H253.383C253.383 63.1973 253.635 62.5625 254.139 62.0781C254.647 61.5938 255.325 61.3516 256.172 61.3516C256.965 61.3516 257.592 61.5605 258.053 61.9785C258.514 62.3926 258.745 62.9453 258.745 63.6367C258.745 64.4766 258.209 65.4766 257.139 66.6367L254.854 69.1152H259.137V70Z" fill="#2C2D2E"/>
<path d="M296.271 70H295.182V62.7754L292.996 63.5781V62.5938L296.102 61.4277H296.271V70ZM301.123 65.207H301.938C302.45 65.1992 302.852 65.0645 303.145 64.8027C303.438 64.541 303.584 64.1875 303.584 63.7422C303.584 62.7422 303.086 62.2422 302.09 62.2422C301.621 62.2422 301.246 62.377 300.965 62.6465C300.688 62.9121 300.549 63.2656 300.549 63.707H299.465C299.465 63.0312 299.711 62.4707 300.204 62.0254C300.7 61.5762 301.329 61.3516 302.09 61.3516C302.895 61.3516 303.526 61.5645 303.983 61.9902C304.44 62.416 304.668 63.0078 304.668 63.7656C304.668 64.1367 304.547 64.4961 304.305 64.8438C304.067 65.1914 303.741 65.4512 303.327 65.623C303.795 65.7715 304.157 66.0176 304.411 66.3613C304.668 66.7051 304.797 67.125 304.797 67.6211C304.797 68.3867 304.547 68.9941 304.047 69.4434C303.547 69.8926 302.897 70.1172 302.096 70.1172C301.295 70.1172 300.643 69.9004 300.139 69.4668C299.639 69.0332 299.389 68.4609 299.389 67.75H300.479C300.479 68.1992 300.625 68.5586 300.918 68.8281C301.211 69.0977 301.604 69.2324 302.096 69.2324C302.62 69.2324 303.02 69.0957 303.297 68.8223C303.575 68.5488 303.713 68.1562 303.713 67.6445C303.713 67.1484 303.561 66.7676 303.256 66.502C302.952 66.2363 302.512 66.0996 301.938 66.0918H301.123V65.207Z" fill="#2C2D2E"/>
<path d="M24.2715 106H23.1816V98.7754L20.9961 99.5781V98.5938L24.1016 97.4277H24.2715V106ZM32.1234 103.135H33.307V104.02H32.1234V106H31.0336V104.02H27.1488V103.381L30.9691 97.4688H32.1234V103.135ZM28.3793 103.135H31.0336V98.9512L30.9047 99.1855L28.3793 103.135Z" fill="#2C2D2E"/>
<path d="M70.2715 106H69.1816V98.7754L66.9961 99.5781V98.5938L70.1016 97.4277H70.2715V106ZM74.0453 101.723L74.4789 97.4688H78.85V98.4707H75.3988L75.141 100.797C75.559 100.551 76.0336 100.428 76.5648 100.428C77.3422 100.428 77.9594 100.686 78.4164 101.201C78.8734 101.713 79.102 102.406 79.102 103.281C79.102 104.16 78.8637 104.854 78.3871 105.361C77.9145 105.865 77.2523 106.117 76.4008 106.117C75.6469 106.117 75.0316 105.908 74.5551 105.49C74.0785 105.072 73.807 104.494 73.7406 103.756H74.766C74.8324 104.244 75.0062 104.613 75.2875 104.863C75.5687 105.109 75.9398 105.232 76.4008 105.232C76.9047 105.232 77.2992 105.061 77.5844 104.717C77.8734 104.373 78.018 103.898 78.018 103.293C78.018 102.723 77.8617 102.266 77.5492 101.922C77.2406 101.574 76.8285 101.4 76.3129 101.4C75.8402 101.4 75.4691 101.504 75.1996 101.711L74.9125 101.945L74.0453 101.723Z" fill="#2C2D2E"/>
<path d="M115.271 106H114.182V98.7754L111.996 99.5781V98.5938L115.102 97.4277H115.271V106ZM122.801 97.4629V98.3828H122.602C121.758 98.3984 121.086 98.6484 120.586 99.1328C120.086 99.6172 119.797 100.299 119.719 101.178C120.168 100.662 120.782 100.404 121.559 100.404C122.301 100.404 122.893 100.666 123.334 101.189C123.78 101.713 124.002 102.389 124.002 103.217C124.002 104.096 123.762 104.799 123.282 105.326C122.805 105.854 122.164 106.117 121.36 106.117C120.543 106.117 119.881 105.805 119.373 105.18C118.866 104.551 118.612 103.742 118.612 102.754V102.338C118.612 100.768 118.946 99.5684 119.614 98.7402C120.286 97.9082 121.284 97.4824 122.608 97.4629H122.801ZM121.377 101.307C121.006 101.307 120.664 101.418 120.352 101.641C120.039 101.863 119.823 102.143 119.702 102.479V102.877C119.702 103.58 119.86 104.146 120.176 104.576C120.493 105.006 120.887 105.221 121.36 105.221C121.848 105.221 122.231 105.041 122.508 104.682C122.789 104.322 122.93 103.852 122.93 103.27C122.93 102.684 122.787 102.211 122.502 101.852C122.221 101.488 121.846 101.307 121.377 101.307Z" fill="#2C2D2E"/>
<path d="M161.271 107H160.182V99.7754L157.996 100.578V99.5938L161.102 98.4277H161.271V107ZM170.055 99.0781L166.522 107H165.385L168.907 99.3594H164.289V98.4688H170.055V99.0781Z" fill="#2C2D2E"/>
<path d="M204.271 106H203.182V98.7754L200.996 99.5781V98.5938L204.102 97.4277H204.271V106ZM212.721 99.6953C212.721 100.121 212.608 100.5 212.381 100.832C212.159 101.164 211.856 101.424 211.473 101.611C211.918 101.803 212.27 102.082 212.528 102.449C212.789 102.816 212.92 103.232 212.92 103.697C212.92 104.436 212.67 105.023 212.17 105.461C211.674 105.898 211.02 106.117 210.207 106.117C209.387 106.117 208.729 105.898 208.233 105.461C207.741 105.02 207.495 104.432 207.495 103.697C207.495 103.236 207.62 102.82 207.87 102.449C208.123 102.078 208.473 101.797 208.918 101.605C208.539 101.418 208.241 101.158 208.022 100.826C207.803 100.494 207.694 100.117 207.694 99.6953C207.694 98.9766 207.924 98.4062 208.385 97.9844C208.846 97.5625 209.454 97.3516 210.207 97.3516C210.957 97.3516 211.563 97.5625 212.024 97.9844C212.489 98.4062 212.721 98.9766 212.721 99.6953ZM211.836 103.674C211.836 103.197 211.684 102.809 211.379 102.508C211.079 102.207 210.684 102.057 210.196 102.057C209.707 102.057 209.315 102.205 209.018 102.502C208.725 102.799 208.579 103.189 208.579 103.674C208.579 104.158 208.721 104.539 209.006 104.816C209.295 105.094 209.696 105.232 210.207 105.232C210.715 105.232 211.114 105.094 211.403 104.816C211.692 104.535 211.836 104.154 211.836 103.674ZM210.207 98.2422C209.782 98.2422 209.436 98.375 209.17 98.6406C208.909 98.9023 208.778 99.2598 208.778 99.7129C208.778 100.146 208.907 100.498 209.164 100.768C209.426 101.033 209.774 101.166 210.207 101.166C210.641 101.166 210.987 101.033 211.245 100.768C211.506 100.498 211.637 100.146 211.637 99.7129C211.637 99.2793 211.502 98.9258 211.233 98.6523C210.963 98.3789 210.621 98.2422 210.207 98.2422Z" fill="#2C2D2E"/>
<path d="M250.271 106H249.182V98.7754L246.996 99.5781V98.5938L250.102 97.4277H250.271V106ZM257.702 102.25C257.475 102.52 257.204 102.736 256.887 102.9C256.575 103.064 256.231 103.146 255.856 103.146C255.364 103.146 254.934 103.025 254.567 102.783C254.204 102.541 253.922 102.201 253.723 101.764C253.524 101.322 253.424 100.836 253.424 100.305C253.424 99.7344 253.532 99.2207 253.746 98.7637C253.965 98.3066 254.274 97.957 254.672 97.7148C255.071 97.4727 255.536 97.3516 256.067 97.3516C256.911 97.3516 257.575 97.668 258.059 98.3008C258.547 98.9297 258.791 99.7891 258.791 100.879V101.195C258.791 102.855 258.463 104.068 257.807 104.834C257.151 105.596 256.161 105.986 254.836 106.006H254.625V105.092H254.854C255.748 105.076 256.436 104.844 256.916 104.395C257.397 103.941 257.659 103.227 257.702 102.25ZM256.032 102.25C256.395 102.25 256.729 102.139 257.034 101.916C257.342 101.693 257.567 101.418 257.707 101.09V100.656C257.707 99.9453 257.553 99.3672 257.245 98.9219C256.936 98.4766 256.545 98.2539 256.073 98.2539C255.596 98.2539 255.213 98.4375 254.924 98.8047C254.635 99.168 254.491 99.6484 254.491 100.246C254.491 100.828 254.629 101.309 254.907 101.688C255.188 102.062 255.563 102.25 256.032 102.25Z" fill="#2C2D2E"/>
<path d="M298.299 106H292.709V105.221L295.662 101.939C296.1 101.443 296.4 101.041 296.564 100.732C296.732 100.42 296.816 100.098 296.816 99.7656C296.816 99.3203 296.682 98.9551 296.412 98.6699C296.143 98.3848 295.783 98.2422 295.334 98.2422C294.795 98.2422 294.375 98.3965 294.074 98.7051C293.777 99.0098 293.629 99.4355 293.629 99.9824H292.545C292.545 99.1973 292.797 98.5625 293.301 98.0781C293.809 97.5938 294.486 97.3516 295.334 97.3516C296.127 97.3516 296.754 97.5605 297.215 97.9785C297.676 98.3926 297.906 98.9453 297.906 99.6367C297.906 100.477 297.371 101.477 296.301 102.637L294.016 105.115H298.299V106ZM304.897 102.361C304.897 103.631 304.68 104.574 304.246 105.191C303.813 105.809 303.135 106.117 302.213 106.117C301.303 106.117 300.629 105.816 300.192 105.215C299.754 104.609 299.528 103.707 299.512 102.508V101.061C299.512 99.8066 299.729 98.875 300.162 98.2656C300.596 97.6562 301.276 97.3516 302.202 97.3516C303.12 97.3516 303.795 97.6465 304.229 98.2363C304.662 98.8223 304.885 99.7285 304.897 100.955V102.361ZM303.813 100.879C303.813 99.9609 303.684 99.293 303.426 98.875C303.168 98.4531 302.76 98.2422 302.202 98.2422C301.647 98.2422 301.243 98.4512 300.989 98.8691C300.735 99.2871 300.604 99.9297 300.596 100.797V102.531C300.596 103.453 300.729 104.135 300.995 104.576C301.264 105.014 301.67 105.232 302.213 105.232C302.748 105.232 303.145 105.025 303.403 104.611C303.664 104.197 303.801 103.545 303.813 102.654V100.879Z" fill="#2C2D2E"/>
<path d="M26.2988 142H20.709V141.221L23.6621 137.939C24.0996 137.443 24.4004 137.041 24.5645 136.732C24.7324 136.42 24.8164 136.098 24.8164 135.766C24.8164 135.32 24.6816 134.955 24.4121 134.67C24.1426 134.385 23.7832 134.242 23.334 134.242C22.7949 134.242 22.375 134.396 22.0742 134.705C21.7773 135.01 21.6289 135.436 21.6289 135.982H20.5449C20.5449 135.197 20.7969 134.562 21.3008 134.078C21.8086 133.594 22.4863 133.352 23.334 133.352C24.127 133.352 24.7539 133.561 25.2148 133.979C25.6758 134.393 25.9062 134.945 25.9062 135.637C25.9062 136.477 25.3711 137.477 24.3008 138.637L22.0156 141.115H26.2988V142ZM31.1098 142H30.0199V134.775L27.8344 135.578V134.594L30.9398 133.428H31.1098V142Z" fill="#2C2D2E"/>
<path d="M72.2988 142H66.709V141.221L69.6621 137.939C70.0996 137.443 70.4004 137.041 70.5645 136.732C70.7324 136.42 70.8164 136.098 70.8164 135.766C70.8164 135.32 70.6816 134.955 70.4121 134.67C70.1426 134.385 69.7832 134.242 69.334 134.242C68.7949 134.242 68.375 134.396 68.0742 134.705C67.7773 135.01 67.6289 135.436 67.6289 135.982H66.5449C66.5449 135.197 66.7969 134.562 67.3008 134.078C67.8086 133.594 68.4863 133.352 69.334 133.352C70.127 133.352 70.7539 133.561 71.2148 133.979C71.6758 134.393 71.9062 134.945 71.9062 135.637C71.9062 136.477 71.3711 137.477 70.3008 138.637L68.0156 141.115H72.2988V142ZM79.1371 142H73.5473V141.221L76.5004 137.939C76.9379 137.443 77.2387 137.041 77.4027 136.732C77.5707 136.42 77.6547 136.098 77.6547 135.766C77.6547 135.32 77.5199 134.955 77.2504 134.67C76.9809 134.385 76.6215 134.242 76.1723 134.242C75.6332 134.242 75.2133 134.396 74.9125 134.705C74.6156 135.01 74.4672 135.436 74.4672 135.982H73.3832C73.3832 135.197 73.6352 134.562 74.1391 134.078C74.6469 133.594 75.3246 133.352 76.1723 133.352C76.9652 133.352 77.5922 133.561 78.0531 133.979C78.5141 134.393 78.7445 134.945 78.7445 135.637C78.7445 136.477 78.2094 137.477 77.1391 138.637L74.8539 141.115H79.1371V142Z" fill="#2C2D2E"/>
<path d="M117.299 142H111.709V141.221L114.662 137.939C115.1 137.443 115.4 137.041 115.564 136.732C115.732 136.42 115.816 136.098 115.816 135.766C115.816 135.32 115.682 134.955 115.412 134.67C115.143 134.385 114.783 134.242 114.334 134.242C113.795 134.242 113.375 134.396 113.074 134.705C112.777 135.01 112.629 135.436 112.629 135.982H111.545C111.545 135.197 111.797 134.562 112.301 134.078C112.809 133.594 113.486 133.352 114.334 133.352C115.127 133.352 115.754 133.561 116.215 133.979C116.676 134.393 116.906 134.945 116.906 135.637C116.906 136.477 116.371 137.477 115.301 138.637L113.016 141.115H117.299V142ZM120.123 137.207H120.938C121.45 137.199 121.852 137.064 122.145 136.803C122.438 136.541 122.584 136.188 122.584 135.742C122.584 134.742 122.086 134.242 121.09 134.242C120.621 134.242 120.246 134.377 119.965 134.646C119.688 134.912 119.549 135.266 119.549 135.707H118.465C118.465 135.031 118.711 134.471 119.204 134.025C119.7 133.576 120.329 133.352 121.09 133.352C121.895 133.352 122.526 133.564 122.983 133.99C123.44 134.416 123.668 135.008 123.668 135.766C123.668 136.137 123.547 136.496 123.305 136.844C123.067 137.191 122.741 137.451 122.327 137.623C122.795 137.771 123.157 138.018 123.411 138.361C123.668 138.705 123.797 139.125 123.797 139.621C123.797 140.387 123.547 140.994 123.047 141.443C122.547 141.893 121.897 142.117 121.096 142.117C120.295 142.117 119.643 141.9 119.139 141.467C118.639 141.033 118.389 140.461 118.389 139.75H119.479C119.479 140.199 119.625 140.559 119.918 140.828C120.211 141.098 120.604 141.232 121.096 141.232C121.62 141.232 122.02 141.096 122.297 140.822C122.575 140.549 122.713 140.156 122.713 139.645C122.713 139.148 122.561 138.768 122.256 138.502C121.952 138.236 121.512 138.1 120.938 138.092H120.123V137.207Z" fill="#2C2D2E"/>
<path d="M163.299 142H157.709V141.221L160.662 137.939C161.1 137.443 161.4 137.041 161.564 136.732C161.732 136.42 161.816 136.098 161.816 135.766C161.816 135.32 161.682 134.955 161.412 134.67C161.143 134.385 160.783 134.242 160.334 134.242C159.795 134.242 159.375 134.396 159.074 134.705C158.777 135.01 158.629 135.436 158.629 135.982H157.545C157.545 135.197 157.797 134.562 158.301 134.078C158.809 133.594 159.486 133.352 160.334 133.352C161.127 133.352 161.754 133.561 162.215 133.979C162.676 134.393 162.906 134.945 162.906 135.637C162.906 136.477 162.371 137.477 161.301 138.637L159.016 141.115H163.299V142ZM169.123 139.135H170.307V140.02H169.123V142H168.034V140.02H164.149V139.381L167.969 133.469H169.123V139.135ZM165.379 139.135H168.034V134.951L167.905 135.186L165.379 139.135Z" fill="#2C2D2E"/>
<path d="M206.299 142H200.709V141.221L203.662 137.939C204.1 137.443 204.4 137.041 204.564 136.732C204.732 136.42 204.816 136.098 204.816 135.766C204.816 135.32 204.682 134.955 204.412 134.67C204.143 134.385 203.783 134.242 203.334 134.242C202.795 134.242 202.375 134.396 202.074 134.705C201.777 135.01 201.629 135.436 201.629 135.982H200.545C200.545 135.197 200.797 134.562 201.301 134.078C201.809 133.594 202.486 133.352 203.334 133.352C204.127 133.352 204.754 133.561 205.215 133.979C205.676 134.393 205.906 134.945 205.906 135.637C205.906 136.477 205.371 137.477 204.301 138.637L202.016 141.115H206.299V142ZM208.045 137.723L208.479 133.469H212.85V134.471H209.399L209.141 136.797C209.559 136.551 210.034 136.428 210.565 136.428C211.342 136.428 211.959 136.686 212.416 137.201C212.873 137.713 213.102 138.406 213.102 139.281C213.102 140.16 212.864 140.854 212.387 141.361C211.914 141.865 211.252 142.117 210.401 142.117C209.647 142.117 209.032 141.908 208.555 141.49C208.079 141.072 207.807 140.494 207.741 139.756H208.766C208.832 140.244 209.006 140.613 209.287 140.863C209.569 141.109 209.94 141.232 210.401 141.232C210.905 141.232 211.299 141.061 211.584 140.717C211.873 140.373 212.018 139.898 212.018 139.293C212.018 138.723 211.862 138.266 211.549 137.922C211.241 137.574 210.829 137.4 210.313 137.4C209.84 137.4 209.469 137.504 209.2 137.711L208.912 137.945L208.045 137.723Z" fill="#2C2D2E"/>
<path d="M252.299 142H246.709V141.221L249.662 137.939C250.1 137.443 250.4 137.041 250.564 136.732C250.732 136.42 250.816 136.098 250.816 135.766C250.816 135.32 250.682 134.955 250.412 134.67C250.143 134.385 249.783 134.242 249.334 134.242C248.795 134.242 248.375 134.396 248.074 134.705C247.777 135.01 247.629 135.436 247.629 135.982H246.545C246.545 135.197 246.797 134.562 247.301 134.078C247.809 133.594 248.486 133.352 249.334 133.352C250.127 133.352 250.754 133.561 251.215 133.979C251.676 134.393 251.906 134.945 251.906 135.637C251.906 136.477 251.371 137.477 250.301 138.637L248.016 141.115H252.299V142ZM257.801 133.463V134.383H257.602C256.758 134.398 256.086 134.648 255.586 135.133C255.086 135.617 254.797 136.299 254.719 137.178C255.168 136.662 255.782 136.404 256.559 136.404C257.301 136.404 257.893 136.666 258.334 137.189C258.78 137.713 259.002 138.389 259.002 139.217C259.002 140.096 258.762 140.799 258.282 141.326C257.805 141.854 257.164 142.117 256.36 142.117C255.543 142.117 254.881 141.805 254.373 141.18C253.866 140.551 253.612 139.742 253.612 138.754V138.338C253.612 136.768 253.946 135.568 254.614 134.74C255.286 133.908 256.284 133.482 257.608 133.463H257.801ZM256.377 137.307C256.006 137.307 255.664 137.418 255.352 137.641C255.039 137.863 254.823 138.143 254.702 138.479V138.877C254.702 139.58 254.86 140.146 255.176 140.576C255.493 141.006 255.887 141.221 256.36 141.221C256.848 141.221 257.231 141.041 257.508 140.682C257.789 140.322 257.93 139.852 257.93 139.27C257.93 138.684 257.787 138.211 257.502 137.852C257.221 137.488 256.846 137.307 256.377 137.307Z" fill="#2C2D2E"/>
<path d="M298.299 142H292.709V141.221L295.662 137.939C296.1 137.443 296.4 137.041 296.564 136.732C296.732 136.42 296.816 136.098 296.816 135.766C296.816 135.32 296.682 134.955 296.412 134.67C296.143 134.385 295.783 134.242 295.334 134.242C294.795 134.242 294.375 134.396 294.074 134.705C293.777 135.01 293.629 135.436 293.629 135.982H292.545C292.545 135.197 292.797 134.562 293.301 134.078C293.809 133.594 294.486 133.352 295.334 133.352C296.127 133.352 296.754 133.561 297.215 133.979C297.676 134.393 297.906 134.945 297.906 135.637C297.906 136.477 297.371 137.477 296.301 138.637L294.016 141.115H298.299V142ZM305.055 134.078L301.522 142H300.385L303.907 134.359H299.289V133.469H305.055V134.078Z" fill="#2C2D2E"/>
<path d="M26.2988 178H20.709V177.221L23.6621 173.939C24.0996 173.443 24.4004 173.041 24.5645 172.732C24.7324 172.42 24.8164 172.098 24.8164 171.766C24.8164 171.32 24.6816 170.955 24.4121 170.67C24.1426 170.385 23.7832 170.242 23.334 170.242C22.7949 170.242 22.375 170.396 22.0742 170.705C21.7773 171.01 21.6289 171.436 21.6289 171.982H20.5449C20.5449 171.197 20.7969 170.562 21.3008 170.078C21.8086 169.594 22.4863 169.352 23.334 169.352C24.127 169.352 24.7539 169.561 25.2148 169.979C25.6758 170.393 25.9062 170.945 25.9062 171.637C25.9062 172.477 25.3711 173.477 24.3008 174.637L22.0156 177.115H26.2988V178ZM32.7211 171.695C32.7211 172.121 32.6078 172.5 32.3812 172.832C32.1586 173.164 31.8559 173.424 31.473 173.611C31.9184 173.803 32.2699 174.082 32.5277 174.449C32.7895 174.816 32.9203 175.232 32.9203 175.697C32.9203 176.436 32.6703 177.023 32.1703 177.461C31.6742 177.898 31.0199 178.117 30.2074 178.117C29.3871 178.117 28.7289 177.898 28.2328 177.461C27.7406 177.02 27.4945 176.432 27.4945 175.697C27.4945 175.236 27.6195 174.82 27.8695 174.449C28.1234 174.078 28.473 173.797 28.9184 173.605C28.5395 173.418 28.2406 173.158 28.0219 172.826C27.8031 172.494 27.6937 172.117 27.6937 171.695C27.6937 170.977 27.9242 170.406 28.3852 169.984C28.8461 169.562 29.4535 169.352 30.2074 169.352C30.9574 169.352 31.5629 169.562 32.0238 169.984C32.4887 170.406 32.7211 170.977 32.7211 171.695ZM31.8363 175.674C31.8363 175.197 31.684 174.809 31.3793 174.508C31.0785 174.207 30.684 174.057 30.1957 174.057C29.7074 174.057 29.3148 174.205 29.018 174.502C28.725 174.799 28.5785 175.189 28.5785 175.674C28.5785 176.158 28.7211 176.539 29.0062 176.816C29.2953 177.094 29.6957 177.232 30.2074 177.232C30.7152 177.232 31.1137 177.094 31.4027 176.816C31.6918 176.535 31.8363 176.154 31.8363 175.674ZM30.2074 170.242C29.7816 170.242 29.4359 170.375 29.1703 170.641C28.9086 170.902 28.7777 171.26 28.7777 171.713C28.7777 172.146 28.9066 172.498 29.1645 172.768C29.4262 173.033 29.7738 173.166 30.2074 173.166C30.641 173.166 30.9867 173.033 31.2445 172.768C31.5062 172.498 31.6371 172.146 31.6371 171.713C31.6371 171.279 31.5023 170.926 31.2328 170.652C30.9633 170.379 30.6215 170.242 30.2074 170.242Z" fill="#2C2D2E"/>
<path d="M71.2988 178H65.709V177.221L68.6621 173.939C69.0996 173.443 69.4004 173.041 69.5645 172.732C69.7324 172.42 69.8164 172.098 69.8164 171.766C69.8164 171.32 69.6816 170.955 69.4121 170.67C69.1426 170.385 68.7832 170.242 68.334 170.242C67.7949 170.242 67.375 170.396 67.0742 170.705C66.7773 171.01 66.6289 171.436 66.6289 171.982H65.5449C65.5449 171.197 65.7969 170.562 66.3008 170.078C66.8086 169.594 67.4863 169.352 68.334 169.352C69.127 169.352 69.7539 169.561 70.2148 169.979C70.6758 170.393 70.9062 170.945 70.9062 171.637C70.9062 172.477 70.3711 173.477 69.3008 174.637L67.0156 177.115H71.2988V178ZM76.7016 174.25C76.475 174.52 76.2035 174.736 75.8871 174.9C75.5746 175.064 75.2309 175.146 74.8559 175.146C74.3637 175.146 73.934 175.025 73.5668 174.783C73.2035 174.541 72.9223 174.201 72.723 173.764C72.5238 173.322 72.4242 172.836 72.4242 172.305C72.4242 171.734 72.5316 171.221 72.7465 170.764C72.9652 170.307 73.2738 169.957 73.6723 169.715C74.0707 169.473 74.5355 169.352 75.0668 169.352C75.9105 169.352 76.5746 169.668 77.059 170.301C77.5473 170.93 77.7914 171.789 77.7914 172.879V173.195C77.7914 174.855 77.4633 176.068 76.807 176.834C76.1508 177.596 75.1605 177.986 73.8363 178.006H73.6254V177.092H73.8539C74.7484 177.076 75.4359 176.844 75.9164 176.395C76.3969 175.941 76.6586 175.227 76.7016 174.25ZM75.0316 174.25C75.3949 174.25 75.7289 174.139 76.0336 173.916C76.3422 173.693 76.5668 173.418 76.7074 173.09V172.656C76.7074 171.945 76.5531 171.367 76.2445 170.922C75.9359 170.477 75.5453 170.254 75.0727 170.254C74.5961 170.254 74.2133 170.438 73.9242 170.805C73.6352 171.168 73.4906 171.648 73.4906 172.246C73.4906 172.828 73.6293 173.309 73.9066 173.688C74.1879 174.062 74.5629 174.25 75.0316 174.25Z" fill="#2C2D2E"/>
<path d="M113.285 173.207H114.1C114.611 173.199 115.014 173.064 115.307 172.803C115.6 172.541 115.746 172.188 115.746 171.742C115.746 170.742 115.248 170.242 114.252 170.242C113.783 170.242 113.408 170.377 113.127 170.646C112.85 170.912 112.711 171.266 112.711 171.707H111.627C111.627 171.031 111.873 170.471 112.365 170.025C112.861 169.576 113.49 169.352 114.252 169.352C115.057 169.352 115.688 169.564 116.145 169.99C116.602 170.416 116.83 171.008 116.83 171.766C116.83 172.137 116.709 172.496 116.467 172.844C116.229 173.191 115.902 173.451 115.488 173.623C115.957 173.771 116.318 174.018 116.572 174.361C116.83 174.705 116.959 175.125 116.959 175.621C116.959 176.387 116.709 176.994 116.209 177.443C115.709 177.893 115.059 178.117 114.258 178.117C113.457 178.117 112.805 177.9 112.301 177.467C111.801 177.033 111.551 176.461 111.551 175.75H112.641C112.641 176.199 112.787 176.559 113.08 176.828C113.373 177.098 113.766 177.232 114.258 177.232C114.781 177.232 115.182 177.096 115.459 176.822C115.736 176.549 115.875 176.156 115.875 175.645C115.875 175.148 115.723 174.768 115.418 174.502C115.113 174.236 114.674 174.1 114.1 174.092H113.285V173.207ZM123.897 174.361C123.897 175.631 123.68 176.574 123.246 177.191C122.813 177.809 122.135 178.117 121.213 178.117C120.303 178.117 119.629 177.816 119.192 177.215C118.754 176.609 118.528 175.707 118.512 174.508V173.061C118.512 171.807 118.729 170.875 119.162 170.266C119.596 169.656 120.276 169.352 121.202 169.352C122.12 169.352 122.795 169.646 123.229 170.236C123.662 170.822 123.885 171.729 123.897 172.955V174.361ZM122.813 172.879C122.813 171.961 122.684 171.293 122.426 170.875C122.168 170.453 121.76 170.242 121.202 170.242C120.647 170.242 120.243 170.451 119.989 170.869C119.735 171.287 119.604 171.93 119.596 172.797V174.531C119.596 175.453 119.729 176.135 119.995 176.576C120.264 177.014 120.67 177.232 121.213 177.232C121.748 177.232 122.145 177.025 122.403 176.611C122.664 176.197 122.801 175.545 122.813 174.654V172.879Z" fill="#2C2D2E"/>
<path d="M157.285 173.207H158.1C158.611 173.199 159.014 173.064 159.307 172.803C159.6 172.541 159.746 172.188 159.746 171.742C159.746 170.742 159.248 170.242 158.252 170.242C157.783 170.242 157.408 170.377 157.127 170.646C156.85 170.912 156.711 171.266 156.711 171.707H155.627C155.627 171.031 155.873 170.471 156.365 170.025C156.861 169.576 157.49 169.352 158.252 169.352C159.057 169.352 159.688 169.564 160.145 169.99C160.602 170.416 160.83 171.008 160.83 171.766C160.83 172.137 160.709 172.496 160.467 172.844C160.229 173.191 159.902 173.451 159.488 173.623C159.957 173.771 160.318 174.018 160.572 174.361C160.83 174.705 160.959 175.125 160.959 175.621C160.959 176.387 160.709 176.994 160.209 177.443C159.709 177.893 159.059 178.117 158.258 178.117C157.457 178.117 156.805 177.9 156.301 177.467C155.801 177.033 155.551 176.461 155.551 175.75H156.641C156.641 176.199 156.787 176.559 157.08 176.828C157.373 177.098 157.766 177.232 158.258 177.232C158.781 177.232 159.182 177.096 159.459 176.822C159.736 176.549 159.875 176.156 159.875 175.645C159.875 175.148 159.723 174.768 159.418 174.502C159.113 174.236 158.674 174.1 158.1 174.092H157.285V173.207ZM166.11 178H165.02V170.775L162.834 171.578V170.594L165.94 169.428H166.11V178Z" fill="#2C2D2E"/>
<path d="M211.271 178H210.182V170.775L207.996 171.578V170.594L211.102 169.428H211.271V178Z" fill="#6D7885"/>
<path d="M259.299 178H253.709V177.221L256.662 173.939C257.1 173.443 257.4 173.041 257.564 172.732C257.732 172.42 257.816 172.098 257.816 171.766C257.816 171.32 257.682 170.955 257.412 170.67C257.143 170.385 256.783 170.242 256.334 170.242C255.795 170.242 255.375 170.396 255.074 170.705C254.777 171.01 254.629 171.436 254.629 171.982H253.545C253.545 171.197 253.797 170.562 254.301 170.078C254.809 169.594 255.486 169.352 256.334 169.352C257.127 169.352 257.754 169.561 258.215 169.979C258.676 170.393 258.906 170.945 258.906 171.637C258.906 172.477 258.371 173.477 257.301 174.637L255.016 177.115H259.299V178Z" fill="#6D7885"/>
<path d="M301.285 173.207H302.1C302.611 173.199 303.014 173.064 303.307 172.803C303.6 172.541 303.746 172.188 303.746 171.742C303.746 170.742 303.248 170.242 302.252 170.242C301.783 170.242 301.408 170.377 301.127 170.646C300.85 170.912 300.711 171.266 300.711 171.707H299.627C299.627 171.031 299.873 170.471 300.365 170.025C300.861 169.576 301.49 169.352 302.252 169.352C303.057 169.352 303.688 169.564 304.145 169.99C304.602 170.416 304.83 171.008 304.83 171.766C304.83 172.137 304.709 172.496 304.467 172.844C304.229 173.191 303.902 173.451 303.488 173.623C303.957 173.771 304.318 174.018 304.572 174.361C304.83 174.705 304.959 175.125 304.959 175.621C304.959 176.387 304.709 176.994 304.209 177.443C303.709 177.893 303.059 178.117 302.258 178.117C301.457 178.117 300.805 177.9 300.301 177.467C299.801 177.033 299.551 176.461 299.551 175.75H300.641C300.641 176.199 300.787 176.559 301.08 176.828C301.373 177.098 301.766 177.232 302.258 177.232C302.781 177.232 303.182 177.096 303.459 176.822C303.736 176.549 303.875 176.156 303.875 175.645C303.875 175.148 303.723 174.768 303.418 174.502C303.113 174.236 302.674 174.1 302.1 174.092H301.285V173.207Z" fill="#6D7885"/>
<path d="M18.5059 14H17.375V6.39453H13.168V14H12.043V5.46875H18.5059V14ZM27.2133 14H26.0824V10.0566H21.7816V14H20.6566V5.46875H21.7816V9.13672H26.0824V5.46875H27.2133V14Z" fill="#6D7885"/>
<path d="M59.9902 14V5.46875H62.7793C63.7051 5.46875 64.4004 5.66016 64.8652 6.04297C65.334 6.42578 65.5684 6.99219 65.5684 7.74219C65.5684 8.14062 65.4551 8.49414 65.2285 8.80273C65.002 9.10742 64.6934 9.34375 64.3027 9.51172C64.7637 9.64062 65.127 9.88672 65.3926 10.25C65.6621 10.6094 65.7969 11.0391 65.7969 11.5391C65.7969 12.3047 65.5488 12.9062 65.0527 13.3438C64.5566 13.7812 63.8555 14 62.9492 14H59.9902ZM61.1152 10.0098V13.0801H62.9727C63.4961 13.0801 63.9082 12.9453 64.209 12.6758C64.5137 12.4023 64.666 12.0273 64.666 11.5508C64.666 10.5234 64.1074 10.0098 62.9902 10.0098H61.1152ZM61.1152 9.10742H62.8145C63.3066 9.10742 63.6992 8.98438 63.9922 8.73828C64.2891 8.49219 64.4375 8.1582 64.4375 7.73633C64.4375 7.26758 64.3008 6.92773 64.0273 6.7168C63.7539 6.50195 63.3379 6.39453 62.7793 6.39453H61.1152V9.10742ZM73.2973 6.39453H70.5551V14H69.4359V6.39453H66.6996V5.46875H73.2973V6.39453Z" fill="#6D7885"/>
<path d="M110.266 11.293C110.16 12.1953 109.826 12.8926 109.264 13.3848C108.705 13.873 107.961 14.1172 107.031 14.1172C106.023 14.1172 105.215 13.7559 104.605 13.0332C104 12.3105 103.697 11.3438 103.697 10.1328V9.3125C103.697 8.51953 103.838 7.82227 104.119 7.2207C104.404 6.61914 104.807 6.1582 105.326 5.83789C105.846 5.51367 106.447 5.35156 107.131 5.35156C108.037 5.35156 108.764 5.60547 109.311 6.11328C109.857 6.61719 110.176 7.31641 110.266 8.21094H109.135C109.037 7.53125 108.824 7.03906 108.496 6.73438C108.172 6.42969 107.717 6.27734 107.131 6.27734C106.412 6.27734 105.848 6.54297 105.438 7.07422C105.031 7.60547 104.828 8.36133 104.828 9.3418V10.168C104.828 11.0938 105.021 11.8301 105.408 12.377C105.795 12.9238 106.336 13.1973 107.031 13.1973C107.656 13.1973 108.135 13.0566 108.467 12.7754C108.803 12.4902 109.025 11.9961 109.135 11.293H110.266ZM113.032 10.6602V14H111.907V5.46875H115.053C115.987 5.46875 116.717 5.70703 117.245 6.18359C117.776 6.66016 118.041 7.29102 118.041 8.07617C118.041 8.9043 117.782 9.54297 117.262 9.99219C116.746 10.4375 116.006 10.6602 115.041 10.6602H113.032ZM113.032 9.74023H115.053C115.655 9.74023 116.116 9.59961 116.436 9.31836C116.756 9.0332 116.916 8.62305 116.916 8.08789C116.916 7.58008 116.756 7.17383 116.436 6.86914C116.116 6.56445 115.676 6.40625 115.118 6.39453H113.032V9.74023Z" fill="#6D7885"/>
<path d="M154.172 5.46875V14H153.041V10.4668C152.631 10.584 152.258 10.666 151.922 10.7129C151.586 10.7559 151.203 10.7773 150.773 10.7773C149.801 10.7773 149.078 10.5664 148.605 10.1445C148.133 9.72266 147.891 9.07617 147.879 8.20508V5.46875H149.01V8.17578C149.014 8.76953 149.148 9.19727 149.414 9.45898C149.684 9.7207 150.137 9.85156 150.773 9.85156C151.516 9.85156 152.271 9.74609 153.041 9.53516V5.46875H154.172ZM162.024 6.39453H159.282V14H158.163V6.39453H155.426V5.46875H162.024V6.39453Z" fill="#6D7885"/>
<path d="M199.506 14H198.375V6.39453H194.168V14H193.043V5.46875H199.506V14ZM207.551 6.39453H204.809V14H203.69V6.39453H200.954V5.46875H207.551V6.39453Z" fill="#6D7885"/>
<path d="M245.266 11.293C245.16 12.1953 244.826 12.8926 244.264 13.3848C243.705 13.873 242.961 14.1172 242.031 14.1172C241.023 14.1172 240.215 13.7559 239.605 13.0332C239 12.3105 238.697 11.3438 238.697 10.1328V9.3125C238.697 8.51953 238.838 7.82227 239.119 7.2207C239.404 6.61914 239.807 6.1582 240.326 5.83789C240.846 5.51367 241.447 5.35156 242.131 5.35156C243.037 5.35156 243.764 5.60547 244.311 6.11328C244.857 6.61719 245.176 7.31641 245.266 8.21094H244.135C244.037 7.53125 243.824 7.03906 243.496 6.73438C243.172 6.42969 242.717 6.27734 242.131 6.27734C241.412 6.27734 240.848 6.54297 240.438 7.07422C240.031 7.60547 239.828 8.36133 239.828 9.3418V10.168C239.828 11.0938 240.021 11.8301 240.408 12.377C240.795 12.9238 241.336 13.1973 242.031 13.1973C242.656 13.1973 243.135 13.0566 243.467 12.7754C243.803 12.4902 244.025 11.9961 244.135 11.293H245.266ZM252.11 6.39453H247.996V8.94922H250.118C251.008 8.96094 251.704 9.18945 252.204 9.63477C252.704 10.0801 252.954 10.6855 252.954 11.4512C252.954 12.2207 252.702 12.834 252.198 13.291C251.694 13.748 251.006 13.9844 250.135 14H246.866V5.46875H252.11V6.39453ZM247.996 9.875V13.0801H250.053C250.612 13.0801 251.045 12.9316 251.354 12.6348C251.666 12.3379 251.823 11.9395 251.823 11.4395C251.823 10.959 251.672 10.5801 251.371 10.3027C251.075 10.0254 250.651 9.88281 250.1 9.875H247.996Z" fill="#6D7885"/>
<path d="M283.99 14V5.46875H286.779C287.705 5.46875 288.4 5.66016 288.865 6.04297C289.334 6.42578 289.568 6.99219 289.568 7.74219C289.568 8.14062 289.455 8.49414 289.229 8.80273C289.002 9.10742 288.693 9.34375 288.303 9.51172C288.764 9.64062 289.127 9.88672 289.393 10.25C289.662 10.6094 289.797 11.0391 289.797 11.5391C289.797 12.3047 289.549 12.9062 289.053 13.3438C288.557 13.7812 287.855 14 286.949 14H283.99ZM285.115 10.0098V13.0801H286.973C287.496 13.0801 287.908 12.9453 288.209 12.6758C288.514 12.4023 288.666 12.0273 288.666 11.5508C288.666 10.5234 288.107 10.0098 286.99 10.0098H285.115ZM285.115 9.10742H286.814C287.307 9.10742 287.699 8.98438 287.992 8.73828C288.289 8.49219 288.438 8.1582 288.438 7.73633C288.438 7.26758 288.301 6.92773 288.027 6.7168C287.754 6.50195 287.338 6.39453 286.779 6.39453H285.115V9.10742ZM297.842 11.293C297.737 12.1953 297.403 12.8926 296.84 13.3848C296.282 13.873 295.537 14.1172 294.608 14.1172C293.6 14.1172 292.791 13.7559 292.182 13.0332C291.577 12.3105 291.274 11.3438 291.274 10.1328V9.3125C291.274 8.51953 291.414 7.82227 291.696 7.2207C291.981 6.61914 292.383 6.1582 292.903 5.83789C293.422 5.51367 294.024 5.35156 294.707 5.35156C295.614 5.35156 296.34 5.60547 296.887 6.11328C297.434 6.61719 297.752 7.31641 297.842 8.21094H296.711C296.614 7.53125 296.401 7.03906 296.073 6.73438C295.748 6.42969 295.293 6.27734 294.707 6.27734C293.989 6.27734 293.424 6.54297 293.014 7.07422C292.608 7.60547 292.405 8.36133 292.405 9.3418V10.168C292.405 11.0938 292.598 11.8301 292.985 12.377C293.371 12.9238 293.912 13.1973 294.608 13.1973C295.233 13.1973 295.711 13.0566 296.043 12.7754C296.379 12.4902 296.602 11.9961 296.711 11.293H297.842Z" fill="#6D7885"/>
<rect x="92" y="57" width="37.1395" height="28" rx="2" stroke="#E64646" stroke-width="2"/>
</svg>
